<svg xmlns="http://www.w3.org/2000/svg" xmlns:xlink="http://www.w3.org/1999/xlink" width="500" zoomAndPan="magnify" viewBox="0 0 375 374.999991" height="500" preserveAspectRatio="xMidYMid meet" version="1.0"><defs><g/></defs><rect x="-37.5" width="450" fill="#ffffff" y="-37.499999" height="449.999989" fill-opacity="1"/><rect x="-37.5" width="450" fill="#000000" y="-37.499999" height="449.999989" fill-opacity="1"/><rect x="-37.5" width="450" fill="#ffffff" y="-37.499999" height="449.999989" fill-opacity="1"/><rect x="-37.5" width="450" fill="#000000" y="-37.499999" height="449.999989" fill-opacity="1"/><g fill="#ffffff" fill-opacity="1"><g transform="translate(123.210935, 194.624987)"><g><path d="M 2.03125 4.484375 C 1.707031 4.660156 1.347656 4.75 0.953125 4.75 C 0.566406 4.75 0.191406 4.664062 -0.171875 4.5 C -0.535156 4.34375 -0.84375 4.132812 -1.09375 3.875 C -1.1875 3.769531 -1.234375 3.585938 -1.234375 3.328125 C -1.234375 3.046875 -1.1875 2.757812 -1.09375 2.46875 C -1.019531 2.195312 -0.925781 2.0625 -0.8125 2.0625 C -0.75 2.0625 -0.660156 2.101562 -0.546875 2.1875 C -0.441406 2.269531 -0.347656 2.367188 -0.265625 2.484375 C 0.0234375 2.734375 0.304688 2.859375 0.578125 2.859375 C 1.097656 2.859375 1.65625 2.40625 2.25 1.5 L 2.8125 0.21875 C 3.632812 -1.582031 4.097656 -2.640625 4.203125 -2.953125 C 4.203125 -2.960938 4.207031 -2.988281 4.21875 -3.03125 C 4.238281 -3.082031 4.269531 -3.132812 4.3125 -3.1875 C 4.320312 -3.25 4.359375 -3.375 4.421875 -3.5625 C 4.492188 -3.75 4.550781 -3.945312 4.59375 -4.15625 L 5.515625 -6.78125 C 5.578125 -7.070312 5.660156 -7.390625 5.765625 -7.734375 C 5.878906 -8.078125 5.984375 -8.367188 6.078125 -8.609375 C 6.128906 -8.722656 6.347656 -9.351562 6.734375 -10.5 L 7.046875 -11.46875 C 7.203125 -11.976562 7.332031 -12.425781 7.4375 -12.8125 C 7.550781 -13.195312 7.59375 -13.414062 7.5625 -13.46875 L 6.34375 -13.25 C 6.019531 -13.113281 5.742188 -13.046875 5.515625 -13.046875 C 5.296875 -13.046875 5.210938 -13.125 5.265625 -13.28125 L 5.265625 -13.53125 C 5.203125 -13.46875 5.101562 -13.539062 4.96875 -13.75 C 4.84375 -13.96875 4.785156 -14.144531 4.796875 -14.28125 C 4.796875 -14.394531 4.972656 -14.53125 5.328125 -14.6875 C 5.679688 -14.84375 6.078125 -14.945312 6.515625 -15 L 7.609375 -15.140625 C 7.742188 -15.148438 8.035156 -15.175781 8.484375 -15.21875 C 8.566406 -15.28125 8.804688 -15.226562 9.203125 -15.0625 C 9.597656 -14.894531 9.851562 -14.75 9.96875 -14.625 C 10.082031 -14.46875 10.140625 -14.304688 10.140625 -14.140625 C 10.140625 -13.941406 10.078125 -13.65625 9.953125 -13.28125 C 9.828125 -12.90625 9.546875 -12.125 9.109375 -10.9375 L 8.375 -8.890625 C 8.03125 -7.816406 7.757812 -7.0625 7.5625 -6.625 C 7.507812 -6.4375 7.429688 -6.203125 7.328125 -5.921875 C 7.078125 -5.203125 6.894531 -4.628906 6.78125 -4.203125 C 6.601562 -3.796875 6.410156 -3.238281 6.203125 -2.53125 C 6.203125 -2.414062 6.171875 -2.28125 6.109375 -2.125 C 6.054688 -1.976562 5.992188 -1.867188 5.921875 -1.796875 L 5.390625 -0.5 L 5.1875 0.015625 C 5.15625 0.109375 5.078125 0.304688 4.953125 0.609375 C 4.835938 0.921875 4.726562 1.148438 4.625 1.296875 C 4.570312 1.410156 4.488281 1.5625 4.375 1.75 C 4.257812 1.945312 4.203125 2.066406 4.203125 2.109375 C 4.203125 2.128906 4.191406 2.15625 4.171875 2.1875 C 4.160156 2.226562 4.132812 2.25 4.09375 2.25 C 4.070312 2.257812 4.039062 2.28125 4 2.3125 C 3.96875 2.351562 3.953125 2.40625 3.953125 2.46875 C 3.878906 2.644531 3.597656 2.992188 3.109375 3.515625 C 2.617188 4.035156 2.257812 4.359375 2.03125 4.484375 Z M 2.03125 4.484375 "/></g></g></g><g fill="#ffffff" fill-opacity="1"><g transform="translate(130.139702, 194.624987)"><g><path d="M 3.703125 -0.15625 C 3.523438 -0.15625 3.382812 -0.179688 3.28125 -0.234375 C 3.175781 -0.296875 3.03125 -0.410156 2.84375 -0.578125 C 2.539062 -0.878906 2.304688 -1.195312 2.140625 -1.53125 C 1.984375 -1.863281 1.929688 -2.148438 1.984375 -2.390625 C 2.023438 -2.492188 2.039062 -2.597656 2.03125 -2.703125 C 2.03125 -2.804688 2.03125 -2.875 2.03125 -2.90625 C 1.96875 -2.957031 1.9375 -2.992188 1.9375 -3.015625 C 1.9375 -3.046875 1.953125 -3.070312 1.984375 -3.09375 C 2.015625 -3.113281 2.035156 -3.140625 2.046875 -3.171875 C 2.128906 -3.171875 2.160156 -3.25 2.140625 -3.40625 C 2.109375 -3.53125 2.15625 -3.789062 2.28125 -4.1875 C 2.414062 -4.582031 2.585938 -4.945312 2.796875 -5.28125 C 2.953125 -5.539062 3.1875 -5.867188 3.5 -6.265625 C 3.820312 -6.660156 4.109375 -6.960938 4.359375 -7.171875 C 5.085938 -7.804688 5.75 -8.1875 6.34375 -8.3125 C 6.632812 -8.382812 6.914062 -8.421875 7.1875 -8.421875 C 7.613281 -8.421875 7.945312 -8.304688 8.1875 -8.078125 C 8.507812 -7.941406 8.742188 -7.75 8.890625 -7.5 C 9.035156 -7.25 9.128906 -6.921875 9.171875 -6.515625 C 9.191406 -6.421875 9.203125 -6.273438 9.203125 -6.078125 C 9.203125 -4.984375 8.789062 -3.851562 7.96875 -2.6875 C 7.625 -2.195312 7.285156 -1.804688 6.953125 -1.515625 C 6.617188 -1.222656 6.207031 -0.929688 5.71875 -0.640625 C 5.457031 -0.460938 5.175781 -0.34375 4.875 -0.28125 C 4.582031 -0.226562 4.191406 -0.1875 3.703125 -0.15625 Z M 5.9375 -2.84375 C 6.21875 -3.09375 6.421875 -3.34375 6.546875 -3.59375 C 6.671875 -3.851562 6.847656 -4.304688 7.078125 -4.953125 C 7.171875 -5.078125 7.21875 -5.335938 7.21875 -5.734375 C 7.21875 -6.085938 7.164062 -6.289062 7.0625 -6.34375 C 6.988281 -6.394531 6.898438 -6.421875 6.796875 -6.421875 C 6.660156 -6.421875 6.445312 -6.316406 6.15625 -6.109375 C 5.644531 -5.671875 5.21875 -5.210938 4.875 -4.734375 C 4.53125 -4.265625 4.289062 -3.722656 4.15625 -3.109375 C 4.144531 -3.046875 4.140625 -2.957031 4.140625 -2.84375 C 4.140625 -2.34375 4.3125 -2.09375 4.65625 -2.09375 C 5 -2.09375 5.425781 -2.34375 5.9375 -2.84375 Z M 5.9375 -2.84375 "/></g></g></g><g fill="#ffffff" fill-opacity="1"><g transform="translate(138.102284, 194.624987)"><g><path d="M 3.03125 -0.84375 C 2.769531 -0.882812 2.53125 -1.03125 2.3125 -1.28125 C 2.09375 -1.53125 1.984375 -1.816406 1.984375 -2.140625 C 1.984375 -2.484375 2.203125 -3.382812 2.640625 -4.84375 C 2.710938 -5.21875 2.875 -5.707031 3.125 -6.3125 C 3.207031 -6.5625 3.257812 -6.707031 3.28125 -6.75 C 3.539062 -7.632812 3.898438 -8.710938 4.359375 -9.984375 L 4.546875 -10.515625 C 5.066406 -11.910156 5.378906 -12.757812 5.484375 -13.0625 L 5.828125 -14.03125 C 5.828125 -14.15625 5.910156 -14.269531 6.078125 -14.375 C 6.253906 -14.488281 6.398438 -14.546875 6.515625 -14.546875 C 6.742188 -14.546875 6.96875 -14.390625 7.1875 -14.078125 C 7.414062 -13.773438 7.535156 -13.453125 7.546875 -13.109375 C 7.546875 -12.929688 7.507812 -12.769531 7.4375 -12.625 C 7.101562 -11.894531 6.6875 -10.757812 6.1875 -9.21875 C 5.96875 -8.570312 5.742188 -7.957031 5.515625 -7.375 C 5.296875 -6.800781 5.125 -6.390625 5 -6.140625 L 4.75 -5.65625 L 4.4375 -4.484375 C 4.4375 -4.441406 4.429688 -4.40625 4.421875 -4.375 C 4.410156 -4.34375 4.40625 -4.320312 4.40625 -4.3125 C 4.40625 -4.269531 4.410156 -4.25 4.421875 -4.25 L 4.796875 -4.625 C 5.222656 -5.050781 5.726562 -5.484375 6.3125 -5.921875 C 6.800781 -6.253906 7.050781 -6.441406 7.0625 -6.484375 C 7.070312 -6.535156 7.128906 -6.601562 7.234375 -6.6875 L 7.453125 -6.859375 C 7.921875 -7.203125 8.425781 -7.375 8.96875 -7.375 C 9.132812 -7.375 9.328125 -7.289062 9.546875 -7.125 C 9.765625 -6.96875 9.953125 -6.742188 10.109375 -6.453125 C 10.265625 -6.171875 10.34375 -5.867188 10.34375 -5.546875 L 10.34375 -5.21875 C 10.34375 -4.84375 10.269531 -4.359375 10.125 -3.765625 C 9.988281 -3.171875 9.914062 -2.832031 9.90625 -2.75 C 9.976562 -2.75 10.085938 -2.765625 10.234375 -2.796875 C 10.453125 -2.796875 10.609375 -2.769531 10.703125 -2.71875 C 10.796875 -2.675781 10.878906 -2.617188 10.953125 -2.546875 C 11.023438 -2.472656 11.09375 -2.429688 11.15625 -2.421875 C 11.1875 -2.390625 11.203125 -2.34375 11.203125 -2.28125 C 11.203125 -1.945312 11.015625 -1.65625 10.640625 -1.40625 C 10.273438 -1.15625 9.925781 -1.015625 9.59375 -0.984375 C 9.175781 -0.984375 8.84375 -1.132812 8.59375 -1.4375 C 8.351562 -1.75 8.234375 -2.128906 8.234375 -2.578125 C 8.234375 -2.753906 8.238281 -2.925781 8.25 -3.09375 C 8.257812 -3.269531 8.273438 -3.425781 8.296875 -3.5625 C 8.335938 -3.851562 8.359375 -4.085938 8.359375 -4.265625 C 8.359375 -4.453125 8.335938 -4.578125 8.296875 -4.640625 C 8.265625 -4.710938 8.207031 -4.75 8.125 -4.75 C 7.820312 -4.75 7.304688 -4.476562 6.578125 -3.9375 C 5.859375 -3.40625 5.125 -2.71875 4.375 -1.875 C 3.90625 -1.1875 3.457031 -0.84375 3.03125 -0.84375 Z M 3.03125 -0.84375 "/></g></g></g><g fill="#ffffff" fill-opacity="1"><g transform="translate(148.506427, 194.624987)"><g><path d="M 9.71875 -0.53125 C 8.800781 -0.5625 8.34375 -1.082031 8.34375 -2.09375 C 8.34375 -2.375 8.363281 -2.644531 8.40625 -2.90625 C 8.4375 -3.226562 8.453125 -3.457031 8.453125 -3.59375 L 8.453125 -3.9375 C 8.398438 -4.226562 8.300781 -4.375 8.15625 -4.375 C 7.894531 -4.375 7.40625 -4.117188 6.6875 -3.609375 C 5.976562 -3.109375 5.238281 -2.503906 4.46875 -1.796875 C 4.226562 -1.554688 4.03125 -1.320312 3.875 -1.09375 C 3.726562 -0.90625 3.617188 -0.789062 3.546875 -0.75 C 3.472656 -0.707031 3.351562 -0.6875 3.1875 -0.6875 C 2.976562 -0.707031 2.742188 -0.859375 2.484375 -1.140625 C 2.222656 -1.421875 2.046875 -1.671875 1.953125 -1.890625 C 1.953125 -2.304688 2.023438 -2.695312 2.171875 -3.0625 C 2.316406 -3.4375 2.539062 -3.910156 2.84375 -4.484375 C 2.96875 -4.921875 3.132812 -5.363281 3.34375 -5.8125 C 3.5625 -6.320312 3.71875 -6.710938 3.8125 -6.984375 C 3.90625 -7.253906 3.96875 -7.535156 4 -7.828125 C 4 -7.847656 3.992188 -7.859375 3.984375 -7.859375 C 3.984375 -7.910156 4.003906 -7.957031 4.046875 -8 C 4.085938 -8.050781 4.140625 -8.078125 4.203125 -8.078125 C 4.234375 -8.117188 4.320312 -8.140625 4.46875 -8.140625 C 4.84375 -8.140625 5.171875 -8.035156 5.453125 -7.828125 C 5.734375 -7.628906 5.875 -7.316406 5.875 -6.890625 C 5.875 -6.671875 5.832031 -6.460938 5.75 -6.265625 C 5.664062 -6.066406 5.515625 -5.738281 5.296875 -5.28125 L 5.0625 -4.796875 C 5.019531 -4.703125 4.953125 -4.570312 4.859375 -4.40625 C 4.773438 -4.238281 4.734375 -4.132812 4.734375 -4.09375 C 5.097656 -4.34375 5.53125 -4.671875 6.03125 -5.078125 C 6.757812 -5.671875 7.359375 -6.128906 7.828125 -6.453125 C 8.296875 -6.773438 8.640625 -6.9375 8.859375 -6.9375 C 9.054688 -6.9375 9.328125 -6.828125 9.671875 -6.609375 C 10.015625 -6.398438 10.21875 -6.207031 10.28125 -6.03125 C 10.28125 -5.925781 10.265625 -5.769531 10.234375 -5.5625 C 10.210938 -5.363281 10.195312 -5.179688 10.1875 -5.015625 L 10.203125 -4.328125 C 10.222656 -4.210938 10.234375 -4.039062 10.234375 -3.8125 C 10.234375 -3.34375 10.203125 -3.007812 10.140625 -2.8125 C 10.148438 -2.800781 10.160156 -2.78125 10.171875 -2.75 C 10.191406 -2.71875 10.203125 -2.695312 10.203125 -2.6875 L 10.1875 -2.640625 C 10.195312 -2.492188 10.273438 -2.257812 10.421875 -1.9375 C 10.566406 -1.613281 10.640625 -1.4375 10.640625 -1.40625 C 10.640625 -1.25 10.535156 -1.070312 10.328125 -0.875 C 10.117188 -0.675781 9.914062 -0.5625 9.71875 -0.53125 Z M 9.71875 -0.53125 "/></g></g></g><g fill="#ffffff" fill-opacity="1"><g transform="translate(158.602633, 194.624987)"><g><path d="M 9.71875 -0.53125 C 8.800781 -0.5625 8.34375 -1.082031 8.34375 -2.09375 C 8.34375 -2.375 8.363281 -2.644531 8.40625 -2.90625 C 8.4375 -3.226562 8.453125 -3.457031 8.453125 -3.59375 L 8.453125 -3.9375 C 8.398438 -4.226562 8.300781 -4.375 8.15625 -4.375 C 7.894531 -4.375 7.40625 -4.117188 6.6875 -3.609375 C 5.976562 -3.109375 5.238281 -2.503906 4.46875 -1.796875 C 4.226562 -1.554688 4.03125 -1.320312 3.875 -1.09375 C 3.726562 -0.90625 3.617188 -0.789062 3.546875 -0.75 C 3.472656 -0.707031 3.351562 -0.6875 3.1875 -0.6875 C 2.976562 -0.707031 2.742188 -0.859375 2.484375 -1.140625 C 2.222656 -1.421875 2.046875 -1.671875 1.953125 -1.890625 C 1.953125 -2.304688 2.023438 -2.695312 2.171875 -3.0625 C 2.316406 -3.4375 2.539062 -3.910156 2.84375 -4.484375 C 2.96875 -4.921875 3.132812 -5.363281 3.34375 -5.8125 C 3.5625 -6.320312 3.71875 -6.710938 3.8125 -6.984375 C 3.90625 -7.253906 3.96875 -7.535156 4 -7.828125 C 4 -7.847656 3.992188 -7.859375 3.984375 -7.859375 C 3.984375 -7.910156 4.003906 -7.957031 4.046875 -8 C 4.085938 -8.050781 4.140625 -8.078125 4.203125 -8.078125 C 4.234375 -8.117188 4.320312 -8.140625 4.46875 -8.140625 C 4.84375 -8.140625 5.171875 -8.035156 5.453125 -7.828125 C 5.734375 -7.628906 5.875 -7.316406 5.875 -6.890625 C 5.875 -6.671875 5.832031 -6.460938 5.75 -6.265625 C 5.664062 -6.066406 5.515625 -5.738281 5.296875 -5.28125 L 5.0625 -4.796875 C 5.019531 -4.703125 4.953125 -4.570312 4.859375 -4.40625 C 4.773438 -4.238281 4.734375 -4.132812 4.734375 -4.09375 C 5.097656 -4.34375 5.53125 -4.671875 6.03125 -5.078125 C 6.757812 -5.671875 7.359375 -6.128906 7.828125 -6.453125 C 8.296875 -6.773438 8.640625 -6.9375 8.859375 -6.9375 C 9.054688 -6.9375 9.328125 -6.828125 9.671875 -6.609375 C 10.015625 -6.398438 10.21875 -6.207031 10.28125 -6.03125 C 10.28125 -5.925781 10.265625 -5.769531 10.234375 -5.5625 C 10.210938 -5.363281 10.195312 -5.179688 10.1875 -5.015625 L 10.203125 -4.328125 C 10.222656 -4.210938 10.234375 -4.039062 10.234375 -3.8125 C 10.234375 -3.34375 10.203125 -3.007812 10.140625 -2.8125 C 10.148438 -2.800781 10.160156 -2.78125 10.171875 -2.75 C 10.191406 -2.71875 10.203125 -2.695312 10.203125 -2.6875 L 10.1875 -2.640625 C 10.195312 -2.492188 10.273438 -2.257812 10.421875 -1.9375 C 10.566406 -1.613281 10.640625 -1.4375 10.640625 -1.40625 C 10.640625 -1.25 10.535156 -1.070312 10.328125 -0.875 C 10.117188 -0.675781 9.914062 -0.5625 9.71875 -0.53125 Z M 9.71875 -0.53125 "/></g></g></g><g fill="#ffffff" fill-opacity="1"><g transform="translate(168.698839, 194.624987)"><g><path d="M 8.734375 -8.125 C 8.921875 -7.914062 9.054688 -7.738281 9.140625 -7.59375 C 9.234375 -7.457031 9.28125 -7.296875 9.28125 -7.109375 C 9.28125 -6.796875 9.164062 -6.425781 8.9375 -6 C 8.8125 -5.664062 8.679688 -5.351562 8.546875 -5.0625 C 8.410156 -4.769531 8.304688 -4.578125 8.234375 -4.484375 L 7.71875 -3.328125 C 7.5 -2.835938 7.226562 -2.269531 6.90625 -1.625 C 6.507812 -0.800781 6.234375 -0.191406 6.078125 0.203125 L 5.78125 0.65625 C 5.050781 1.832031 4.488281 2.65625 4.09375 3.125 C 3.769531 3.414062 3.382812 3.71875 2.9375 4.03125 C 2.5 4.351562 2.148438 4.535156 1.890625 4.578125 C 1.609375 4.628906 1.300781 4.65625 0.96875 4.65625 C 0.363281 4.65625 -0.171875 4.550781 -0.640625 4.34375 C -1.109375 4.144531 -1.378906 3.898438 -1.453125 3.609375 L -1.5 3.34375 C -1.5 3.09375 -1.398438 2.894531 -1.203125 2.75 C -1.003906 2.613281 -0.785156 2.546875 -0.546875 2.546875 C -0.398438 2.546875 -0.289062 2.582031 -0.21875 2.65625 C -0.1875 2.675781 -0.0703125 2.757812 0.125 2.90625 C 0.332031 3.050781 0.613281 3.125 0.96875 3.125 C 1.625 3.125 2.269531 2.691406 2.90625 1.828125 C 3.519531 0.847656 3.988281 0.0625 4.3125 -0.53125 C 4.019531 -0.707031 3.734375 -1.003906 3.453125 -1.421875 C 3.171875 -1.835938 3.046875 -2.125 3.078125 -2.28125 L 3.078125 -2.53125 C 2.960938 -2.53125 2.878906 -2.75 2.828125 -3.1875 C 2.773438 -3.625 2.75 -4.164062 2.75 -4.8125 C 2.75 -5.519531 2.765625 -6.015625 2.796875 -6.296875 C 2.847656 -6.523438 2.878906 -6.8125 2.890625 -7.15625 C 2.898438 -7.5 2.90625 -7.722656 2.90625 -7.828125 C 2.882812 -8.035156 2.921875 -8.21875 3.015625 -8.375 C 3.117188 -8.53125 3.210938 -8.632812 3.296875 -8.6875 C 3.492188 -8.757812 3.648438 -8.796875 3.765625 -8.796875 C 4.441406 -8.796875 4.78125 -8.078125 4.78125 -6.640625 C 4.78125 -6.359375 4.769531 -6.144531 4.75 -6 C 4.71875 -5.300781 4.703125 -4.804688 4.703125 -4.515625 C 4.703125 -3.378906 4.859375 -2.644531 5.171875 -2.3125 C 5.304688 -2.613281 5.414062 -2.832031 5.5 -2.96875 C 5.707031 -3.394531 5.828125 -3.664062 5.859375 -3.78125 C 5.878906 -3.882812 5.957031 -4.054688 6.09375 -4.296875 L 6.375 -4.890625 C 6.40625 -4.972656 6.5 -5.253906 6.65625 -5.734375 C 6.820312 -6.210938 6.988281 -6.597656 7.15625 -6.890625 C 7.207031 -7.003906 7.289062 -7.175781 7.40625 -7.40625 C 7.53125 -7.632812 7.628906 -7.796875 7.703125 -7.890625 C 7.773438 -7.992188 7.851562 -8.0625 7.9375 -8.09375 C 8.0625 -8.195312 8.1875 -8.25 8.3125 -8.25 C 8.445312 -8.25 8.585938 -8.207031 8.734375 -8.125 Z M 8.734375 -8.125 "/></g></g></g><g fill="#ffffff" fill-opacity="1"><g transform="translate(176.199502, 194.624987)"><g/></g></g><g fill="#ffffff" fill-opacity="1"><g transform="translate(181.52255, 194.624987)"><g><path d="M 1.34375 0.71875 C 1.175781 0.632812 1.0625 0.554688 1 0.484375 C 0.9375 0.410156 0.90625 0.316406 0.90625 0.203125 C 0.90625 0.0546875 0.96875 -0.148438 1.09375 -0.421875 C 1.21875 -0.703125 1.429688 -1.132812 1.734375 -1.71875 C 1.828125 -1.90625 2 -2.242188 2.25 -2.734375 C 2.875 -3.929688 3.1875 -4.816406 3.1875 -5.390625 C 3.175781 -5.421875 3.171875 -5.460938 3.171875 -5.515625 C 3.171875 -5.660156 3.285156 -5.796875 3.515625 -5.921875 C 3.566406 -5.960938 3.726562 -6.082031 4 -6.28125 C 4.269531 -6.488281 4.484375 -6.726562 4.640625 -7 C 4.828125 -7.4375 5.066406 -7.921875 5.359375 -8.453125 C 5.660156 -8.992188 6.171875 -9.875 6.890625 -11.09375 C 7.585938 -12.382812 8.332031 -13.550781 9.125 -14.59375 C 9.269531 -14.789062 9.4375 -14.945312 9.625 -15.0625 C 9.8125 -15.1875 9.96875 -15.25 10.09375 -15.25 C 10.550781 -15.25 11.015625 -15.070312 11.484375 -14.71875 C 11.960938 -14.363281 12.28125 -14.007812 12.4375 -13.65625 C 12.488281 -13.5625 12.515625 -13.34375 12.515625 -13 C 12.515625 -12.539062 12.460938 -11.769531 12.359375 -10.6875 C 12.328125 -10.5 12.300781 -10.203125 12.28125 -9.796875 C 12.226562 -9.128906 12.160156 -8.421875 12.078125 -7.671875 C 11.921875 -6.035156 11.800781 -4.753906 11.71875 -3.828125 C 11.644531 -2.898438 11.609375 -2.035156 11.609375 -1.234375 C 11.609375 -0.816406 11.617188 -0.515625 11.640625 -0.328125 L 11.640625 -0.171875 L 11.609375 0.328125 C 11.523438 0.421875 11.351562 0.46875 11.09375 0.46875 C 10.789062 0.46875 10.492188 0.414062 10.203125 0.3125 C 9.910156 0.21875 9.75 0.109375 9.71875 -0.015625 C 9.707031 -0.0351562 9.6875 -0.0507812 9.65625 -0.0625 C 9.625 -0.0820312 9.609375 -0.148438 9.609375 -0.265625 L 9.640625 -0.75 L 9.703125 -1.984375 L 9.8125 -5.34375 L 9.53125 -5.328125 C 9.238281 -5.328125 8.617188 -5.265625 7.671875 -5.140625 C 6.722656 -5.023438 6.125 -4.929688 5.875 -4.859375 C 5.738281 -4.859375 5.578125 -4.769531 5.390625 -4.59375 C 5.203125 -4.414062 5.035156 -4.191406 4.890625 -3.921875 C 4.835938 -3.773438 4.726562 -3.5625 4.5625 -3.28125 C 4.40625 -3.007812 4.328125 -2.851562 4.328125 -2.8125 C 4.242188 -2.757812 4.164062 -2.679688 4.09375 -2.578125 C 4.03125 -2.484375 3.992188 -2.421875 3.984375 -2.390625 C 3.984375 -2.234375 3.835938 -1.820312 3.546875 -1.15625 C 3.265625 -0.488281 2.984375 0.0546875 2.703125 0.484375 L 2.109375 1.3125 Z M 6.59375 -6.84375 C 6.695312 -6.851562 6.898438 -6.882812 7.203125 -6.9375 C 7.515625 -6.988281 7.789062 -7.023438 8.03125 -7.046875 C 8.738281 -7.210938 9.222656 -7.296875 9.484375 -7.296875 C 9.628906 -7.296875 9.734375 -7.285156 9.796875 -7.265625 C 9.835938 -7.203125 9.882812 -7.160156 9.9375 -7.140625 C 9.988281 -7.117188 10.019531 -7.109375 10.03125 -7.109375 C 10.0625 -7.222656 10.175781 -8.019531 10.375 -9.5 C 10.582031 -10.976562 10.6875 -11.890625 10.6875 -12.234375 C 10.6875 -12.460938 10.675781 -12.660156 10.65625 -12.828125 C 10.644531 -13.003906 10.632812 -13.113281 10.625 -13.15625 C 10.488281 -13.15625 10.1875 -12.804688 9.71875 -12.109375 C 9.25 -11.410156 8.796875 -10.625 8.359375 -9.75 C 8.023438 -9.144531 7.789062 -8.84375 7.65625 -8.84375 C 7.550781 -8.738281 7.328125 -8.394531 6.984375 -7.8125 C 6.648438 -7.226562 6.519531 -6.90625 6.59375 -6.84375 Z M 6.59375 -6.84375 "/></g></g></g><g fill="#ffffff" fill-opacity="1"><g transform="translate(192.762547, 194.624987)"><g><path d="M 4.40625 0.328125 C 4.050781 0.328125 3.6875 0.253906 3.3125 0.109375 C 2.9375 -0.0351562 2.617188 -0.210938 2.359375 -0.421875 C 2.109375 -0.640625 1.984375 -0.835938 1.984375 -1.015625 C 1.984375 -1.191406 2.0625 -1.300781 2.21875 -1.34375 L 2.328125 -1.4375 C 2.359375 -1.445312 2.421875 -1.453125 2.515625 -1.453125 C 2.566406 -1.460938 2.632812 -1.457031 2.71875 -1.4375 C 2.8125 -1.414062 2.890625 -1.40625 2.953125 -1.40625 C 3.054688 -1.375 3.207031 -1.34375 3.40625 -1.3125 L 3.984375 -1.25 C 4.273438 -1.25 4.546875 -1.28125 4.796875 -1.34375 C 5.054688 -1.40625 5.1875 -1.472656 5.1875 -1.546875 C 5.1875 -1.585938 5.128906 -1.65625 5.015625 -1.75 C 4.898438 -1.851562 4.773438 -1.90625 4.640625 -1.90625 C 4.640625 -1.96875 4.410156 -2.171875 3.953125 -2.515625 C 3.710938 -2.703125 3.476562 -2.890625 3.25 -3.078125 C 3.019531 -3.265625 2.90625 -3.40625 2.90625 -3.5 L 2.921875 -3.546875 L 2.921875 -3.65625 C 2.816406 -3.65625 2.722656 -3.789062 2.640625 -4.0625 C 2.554688 -4.34375 2.515625 -4.617188 2.515625 -4.890625 C 2.515625 -5.378906 2.734375 -5.925781 3.171875 -6.53125 C 3.609375 -7.132812 4.148438 -7.675781 4.796875 -8.15625 C 5.453125 -8.644531 6.078125 -8.976562 6.671875 -9.15625 C 6.890625 -9.257812 7.210938 -9.3125 7.640625 -9.3125 C 7.910156 -9.3125 8.097656 -9.28125 8.203125 -9.21875 L 8.375 -9.265625 C 8.550781 -9.265625 8.78125 -9.113281 9.0625 -8.8125 C 9.34375 -8.519531 9.519531 -8.289062 9.59375 -8.125 C 9.59375 -7.632812 9.578125 -7.242188 9.546875 -6.953125 C 9.515625 -6.660156 9.441406 -6.515625 9.328125 -6.515625 C 9.316406 -6.515625 9.296875 -6.503906 9.265625 -6.484375 C 9.234375 -6.472656 9.21875 -6.4375 9.21875 -6.375 C 9.21875 -6.175781 9.035156 -5.953125 8.671875 -5.703125 C 8.316406 -5.453125 7.992188 -5.328125 7.703125 -5.328125 L 7.609375 -5.34375 C 7.523438 -5.363281 7.394531 -5.453125 7.21875 -5.609375 C 7.050781 -5.773438 6.96875 -5.9375 6.96875 -6.09375 C 6.96875 -6.132812 7.054688 -6.25 7.234375 -6.4375 C 7.410156 -6.632812 7.5625 -6.820312 7.6875 -7 C 7.8125 -7.1875 7.875 -7.382812 7.875 -7.59375 C 7.875 -7.664062 7.847656 -7.710938 7.796875 -7.734375 C 7.742188 -7.753906 7.644531 -7.765625 7.5 -7.765625 C 6.695312 -7.398438 6.117188 -7.054688 5.765625 -6.734375 C 5.722656 -6.640625 5.679688 -6.570312 5.640625 -6.53125 C 5.609375 -6.488281 5.5625 -6.46875 5.5 -6.46875 C 5.5 -6.476562 5.492188 -6.484375 5.484375 -6.484375 C 5.453125 -6.484375 5.351562 -6.398438 5.1875 -6.234375 C 5.03125 -6.066406 4.878906 -5.875 4.734375 -5.65625 C 4.597656 -5.4375 4.515625 -5.226562 4.484375 -5.03125 L 4.4375 -4.96875 L 4.4375 -4.859375 C 4.425781 -4.828125 4.421875 -4.769531 4.421875 -4.6875 C 4.421875 -4.550781 4.476562 -4.410156 4.59375 -4.265625 C 4.71875 -4.128906 4.953125 -3.941406 5.296875 -3.703125 C 5.960938 -3.203125 6.414062 -2.828125 6.65625 -2.578125 C 6.894531 -2.335938 7.046875 -2.125 7.109375 -1.9375 C 7.234375 -1.675781 7.296875 -1.441406 7.296875 -1.234375 C 7.296875 -0.734375 7.035156 -0.347656 6.515625 -0.078125 C 5.992188 0.191406 5.289062 0.328125 4.40625 0.328125 Z M 4.40625 0.328125 "/></g></g></g><g fill="#ffffff" fill-opacity="1"><g transform="translate(200.46117, 194.624987)"><g><path d="M 4.40625 0.328125 C 4.050781 0.328125 3.6875 0.253906 3.3125 0.109375 C 2.9375 -0.0351562 2.617188 -0.210938 2.359375 -0.421875 C 2.109375 -0.640625 1.984375 -0.835938 1.984375 -1.015625 C 1.984375 -1.191406 2.0625 -1.300781 2.21875 -1.34375 L 2.328125 -1.4375 C 2.359375 -1.445312 2.421875 -1.453125 2.515625 -1.453125 C 2.566406 -1.460938 2.632812 -1.457031 2.71875 -1.4375 C 2.8125 -1.414062 2.890625 -1.40625 2.953125 -1.40625 C 3.054688 -1.375 3.207031 -1.34375 3.40625 -1.3125 L 3.984375 -1.25 C 4.273438 -1.25 4.546875 -1.28125 4.796875 -1.34375 C 5.054688 -1.40625 5.1875 -1.472656 5.1875 -1.546875 C 5.1875 -1.585938 5.128906 -1.65625 5.015625 -1.75 C 4.898438 -1.851562 4.773438 -1.90625 4.640625 -1.90625 C 4.640625 -1.96875 4.410156 -2.171875 3.953125 -2.515625 C 3.710938 -2.703125 3.476562 -2.890625 3.25 -3.078125 C 3.019531 -3.265625 2.90625 -3.40625 2.90625 -3.5 L 2.921875 -3.546875 L 2.921875 -3.65625 C 2.816406 -3.65625 2.722656 -3.789062 2.640625 -4.0625 C 2.554688 -4.34375 2.515625 -4.617188 2.515625 -4.890625 C 2.515625 -5.378906 2.734375 -5.925781 3.171875 -6.53125 C 3.609375 -7.132812 4.148438 -7.675781 4.796875 -8.15625 C 5.453125 -8.644531 6.078125 -8.976562 6.671875 -9.15625 C 6.890625 -9.257812 7.210938 -9.3125 7.640625 -9.3125 C 7.910156 -9.3125 8.097656 -9.28125 8.203125 -9.21875 L 8.375 -9.265625 C 8.550781 -9.265625 8.78125 -9.113281 9.0625 -8.8125 C 9.34375 -8.519531 9.519531 -8.289062 9.59375 -8.125 C 9.59375 -7.632812 9.578125 -7.242188 9.546875 -6.953125 C 9.515625 -6.660156 9.441406 -6.515625 9.328125 -6.515625 C 9.316406 -6.515625 9.296875 -6.503906 9.265625 -6.484375 C 9.234375 -6.472656 9.21875 -6.4375 9.21875 -6.375 C 9.21875 -6.175781 9.035156 -5.953125 8.671875 -5.703125 C 8.316406 -5.453125 7.992188 -5.328125 7.703125 -5.328125 L 7.609375 -5.34375 C 7.523438 -5.363281 7.394531 -5.453125 7.21875 -5.609375 C 7.050781 -5.773438 6.96875 -5.9375 6.96875 -6.09375 C 6.96875 -6.132812 7.054688 -6.25 7.234375 -6.4375 C 7.410156 -6.632812 7.5625 -6.820312 7.6875 -7 C 7.8125 -7.1875 7.875 -7.382812 7.875 -7.59375 C 7.875 -7.664062 7.847656 -7.710938 7.796875 -7.734375 C 7.742188 -7.753906 7.644531 -7.765625 7.5 -7.765625 C 6.695312 -7.398438 6.117188 -7.054688 5.765625 -6.734375 C 5.722656 -6.640625 5.679688 -6.570312 5.640625 -6.53125 C 5.609375 -6.488281 5.5625 -6.46875 5.5 -6.46875 C 5.5 -6.476562 5.492188 -6.484375 5.484375 -6.484375 C 5.453125 -6.484375 5.351562 -6.398438 5.1875 -6.234375 C 5.03125 -6.066406 4.878906 -5.875 4.734375 -5.65625 C 4.597656 -5.4375 4.515625 -5.226562 4.484375 -5.03125 L 4.4375 -4.96875 L 4.4375 -4.859375 C 4.425781 -4.828125 4.421875 -4.769531 4.421875 -4.6875 C 4.421875 -4.550781 4.476562 -4.410156 4.59375 -4.265625 C 4.71875 -4.128906 4.953125 -3.941406 5.296875 -3.703125 C 5.960938 -3.203125 6.414062 -2.828125 6.65625 -2.578125 C 6.894531 -2.335938 7.046875 -2.125 7.109375 -1.9375 C 7.234375 -1.675781 7.296875 -1.441406 7.296875 -1.234375 C 7.296875 -0.734375 7.035156 -0.347656 6.515625 -0.078125 C 5.992188 0.191406 5.289062 0.328125 4.40625 0.328125 Z M 4.40625 0.328125 "/></g></g></g><g fill="#ffffff" fill-opacity="1"><g transform="translate(208.159793, 194.624987)"><g><path d="M 7.390625 -0.046875 C 7.253906 -0.171875 7.144531 -0.335938 7.0625 -0.546875 C 6.988281 -0.765625 6.894531 -1.097656 6.78125 -1.546875 C 6.75 -1.628906 6.734375 -1.753906 6.734375 -1.921875 C 6.734375 -2.085938 6.734375 -2.207031 6.734375 -2.28125 C 6.671875 -2.15625 6.59375 -2.015625 6.5 -1.859375 C 6.414062 -1.703125 6.332031 -1.597656 6.25 -1.546875 C 5.90625 -1.203125 5.566406 -0.953125 5.234375 -0.796875 C 4.765625 -0.503906 4.363281 -0.359375 4.03125 -0.359375 C 3.613281 -0.359375 3.257812 -0.546875 2.96875 -0.921875 C 2.5 -1.304688 2.265625 -1.757812 2.265625 -2.28125 C 2.265625 -2.351562 2.28125 -2.492188 2.3125 -2.703125 C 2.34375 -3.242188 2.421875 -3.765625 2.546875 -4.265625 C 2.671875 -4.765625 2.90625 -5.40625 3.25 -6.1875 L 3.921875 -7.5 L 4.265625 -8.1875 C 4.335938 -8.21875 4.457031 -8.234375 4.625 -8.234375 C 4.851562 -8.234375 5.070312 -8.1875 5.28125 -8.09375 C 5.488281 -8.007812 5.597656 -7.894531 5.609375 -7.75 C 5.648438 -7.6875 5.671875 -7.570312 5.671875 -7.40625 C 5.671875 -6.9375 5.472656 -6.316406 5.078125 -5.546875 L 4.90625 -5.125 C 4.644531 -4.5 4.453125 -4.007812 4.328125 -3.65625 C 4.210938 -3.300781 4.15625 -3.003906 4.15625 -2.765625 C 4.15625 -2.535156 4.242188 -2.382812 4.421875 -2.3125 C 4.492188 -2.269531 4.582031 -2.25 4.6875 -2.25 C 4.976562 -2.25 5.332031 -2.472656 5.75 -2.921875 C 6.164062 -3.378906 6.597656 -4.144531 7.046875 -5.21875 C 7.242188 -5.71875 7.363281 -6.226562 7.40625 -6.75 C 7.382812 -6.914062 7.429688 -7.09375 7.546875 -7.28125 C 7.660156 -7.46875 7.816406 -7.625 8.015625 -7.75 C 8.066406 -7.832031 8.144531 -7.898438 8.25 -7.953125 C 8.351562 -8.003906 8.421875 -8 8.453125 -7.9375 L 8.796875 -7.96875 C 8.835938 -7.976562 8.90625 -7.910156 9 -7.765625 C 9.101562 -7.617188 9.175781 -7.53125 9.21875 -7.5 C 9.363281 -7.382812 9.4375 -7.148438 9.4375 -6.796875 C 9.4375 -6.316406 9.257812 -5.648438 8.90625 -4.796875 C 8.625 -4.210938 8.4375 -3.757812 8.34375 -3.4375 C 8.25 -3.125 8.195312 -2.820312 8.1875 -2.53125 C 8.1875 -2.21875 8.210938 -1.976562 8.265625 -1.8125 C 8.316406 -1.644531 8.441406 -1.472656 8.640625 -1.296875 C 8.878906 -1.140625 8.976562 -0.757812 8.9375 -0.15625 C 8.90625 -0.0507812 8.820312 0.0234375 8.6875 0.078125 C 8.550781 0.140625 8.390625 0.171875 8.203125 0.171875 C 7.878906 0.171875 7.609375 0.0976562 7.390625 -0.046875 Z M 7.390625 -0.046875 "/></g></g></g><g fill="#ffffff" fill-opacity="1"><g transform="translate(216.298339, 194.624987)"><g><path d="M 9.71875 -0.53125 C 8.800781 -0.5625 8.34375 -1.082031 8.34375 -2.09375 C 8.34375 -2.375 8.363281 -2.644531 8.40625 -2.90625 C 8.4375 -3.226562 8.453125 -3.457031 8.453125 -3.59375 L 8.453125 -3.9375 C 8.398438 -4.226562 8.300781 -4.375 8.15625 -4.375 C 7.894531 -4.375 7.40625 -4.117188 6.6875 -3.609375 C 5.976562 -3.109375 5.238281 -2.503906 4.46875 -1.796875 C 4.226562 -1.554688 4.03125 -1.320312 3.875 -1.09375 C 3.726562 -0.90625 3.617188 -0.789062 3.546875 -0.75 C 3.472656 -0.707031 3.351562 -0.6875 3.1875 -0.6875 C 2.976562 -0.707031 2.742188 -0.859375 2.484375 -1.140625 C 2.222656 -1.421875 2.046875 -1.671875 1.953125 -1.890625 C 1.953125 -2.304688 2.023438 -2.695312 2.171875 -3.0625 C 2.316406 -3.4375 2.539062 -3.910156 2.84375 -4.484375 C 2.96875 -4.921875 3.132812 -5.363281 3.34375 -5.8125 C 3.5625 -6.320312 3.71875 -6.710938 3.8125 -6.984375 C 3.90625 -7.253906 3.96875 -7.535156 4 -7.828125 C 4 -7.847656 3.992188 -7.859375 3.984375 -7.859375 C 3.984375 -7.910156 4.003906 -7.957031 4.046875 -8 C 4.085938 -8.050781 4.140625 -8.078125 4.203125 -8.078125 C 4.234375 -8.117188 4.320312 -8.140625 4.46875 -8.140625 C 4.84375 -8.140625 5.171875 -8.035156 5.453125 -7.828125 C 5.734375 -7.628906 5.875 -7.316406 5.875 -6.890625 C 5.875 -6.671875 5.832031 -6.460938 5.75 -6.265625 C 5.664062 -6.066406 5.515625 -5.738281 5.296875 -5.28125 L 5.0625 -4.796875 C 5.019531 -4.703125 4.953125 -4.570312 4.859375 -4.40625 C 4.773438 -4.238281 4.734375 -4.132812 4.734375 -4.09375 C 5.097656 -4.34375 5.53125 -4.671875 6.03125 -5.078125 C 6.757812 -5.671875 7.359375 -6.128906 7.828125 -6.453125 C 8.296875 -6.773438 8.640625 -6.9375 8.859375 -6.9375 C 9.054688 -6.9375 9.328125 -6.828125 9.671875 -6.609375 C 10.015625 -6.398438 10.21875 -6.207031 10.28125 -6.03125 C 10.28125 -5.925781 10.265625 -5.769531 10.234375 -5.5625 C 10.210938 -5.363281 10.195312 -5.179688 10.1875 -5.015625 L 10.203125 -4.328125 C 10.222656 -4.210938 10.234375 -4.039062 10.234375 -3.8125 C 10.234375 -3.34375 10.203125 -3.007812 10.140625 -2.8125 C 10.148438 -2.800781 10.160156 -2.78125 10.171875 -2.75 C 10.191406 -2.71875 10.203125 -2.695312 10.203125 -2.6875 L 10.1875 -2.640625 C 10.195312 -2.492188 10.273438 -2.257812 10.421875 -1.9375 C 10.566406 -1.613281 10.640625 -1.4375 10.640625 -1.40625 C 10.640625 -1.25 10.535156 -1.070312 10.328125 -0.875 C 10.117188 -0.675781 9.914062 -0.5625 9.71875 -0.53125 Z M 9.71875 -0.53125 "/></g></g></g><g fill="#ffffff" fill-opacity="1"><g transform="translate(226.394545, 194.624987)"><g><path d="M 4.765625 0.09375 C 4.585938 0.113281 4.445312 0.125 4.34375 0.125 C 3.75 0.125 3.21875 -0.0664062 2.75 -0.453125 C 2.289062 -0.835938 2.0625 -1.332031 2.0625 -1.9375 L 2.046875 -2.28125 C 2.046875 -2.976562 2.195312 -3.78125 2.5 -4.6875 C 2.8125 -5.59375 3.191406 -6.332031 3.640625 -6.90625 C 4.015625 -7.332031 4.332031 -7.675781 4.59375 -7.9375 C 4.851562 -8.207031 5.09375 -8.382812 5.3125 -8.46875 C 5.507812 -8.539062 5.753906 -8.601562 6.046875 -8.65625 C 6.335938 -8.71875 6.554688 -8.75 6.703125 -8.75 C 6.992188 -8.675781 7.269531 -8.570312 7.53125 -8.4375 C 7.789062 -8.3125 7.921875 -8.171875 7.921875 -8.015625 L 8.03125 -7.890625 C 8.125 -7.890625 8.238281 -7.726562 8.375 -7.40625 C 8.519531 -7.09375 8.59375 -6.800781 8.59375 -6.53125 C 8.59375 -6.40625 8.570312 -6.296875 8.53125 -6.203125 C 8.46875 -5.921875 8.351562 -5.648438 8.1875 -5.390625 C 8.019531 -5.128906 7.878906 -5 7.765625 -5 C 7.597656 -5 7.515625 -4.953125 7.515625 -4.859375 C 7.515625 -4.785156 7.425781 -4.75 7.25 -4.75 C 7.101562 -4.75 6.945312 -4.78125 6.78125 -4.84375 C 6.625 -4.914062 6.53125 -5.003906 6.5 -5.109375 C 6.5 -5.179688 6.5625 -5.472656 6.6875 -5.984375 C 6.726562 -6.203125 6.75 -6.382812 6.75 -6.53125 C 6.75 -6.800781 6.660156 -6.9375 6.484375 -6.9375 C 6.441406 -6.9375 6.332031 -6.90625 6.15625 -6.84375 C 5.769531 -6.632812 5.460938 -6.394531 5.234375 -6.125 C 5.015625 -5.851562 4.816406 -5.484375 4.640625 -5.015625 C 4.460938 -4.546875 4.253906 -3.863281 4.015625 -2.96875 C 3.972656 -2.789062 3.953125 -2.628906 3.953125 -2.484375 C 3.953125 -2.304688 3.972656 -2.160156 4.015625 -2.046875 C 4.066406 -1.941406 4.113281 -1.882812 4.15625 -1.875 C 4.226562 -1.84375 4.359375 -1.828125 4.546875 -1.828125 C 4.910156 -1.828125 5.203125 -1.894531 5.421875 -2.03125 C 5.691406 -2.175781 5.953125 -2.335938 6.203125 -2.515625 C 6.453125 -2.703125 6.601562 -2.816406 6.65625 -2.859375 C 6.6875 -2.890625 6.742188 -2.972656 6.828125 -3.109375 C 6.921875 -3.253906 7.019531 -3.347656 7.125 -3.390625 C 7.207031 -3.523438 7.316406 -3.601562 7.453125 -3.625 C 7.585938 -3.65625 7.71875 -3.671875 7.84375 -3.671875 C 7.976562 -3.671875 8.066406 -3.671875 8.109375 -3.671875 C 8.296875 -3.617188 8.476562 -3.488281 8.65625 -3.28125 C 8.832031 -3.070312 8.863281 -2.9375 8.75 -2.875 C 8.707031 -2.875 8.675781 -2.859375 8.65625 -2.828125 C 8.644531 -2.804688 8.640625 -2.785156 8.640625 -2.765625 C 8.671875 -2.691406 8.550781 -2.5 8.28125 -2.1875 C 8.019531 -1.875 7.726562 -1.570312 7.40625 -1.28125 C 7.082031 -1 6.863281 -0.859375 6.75 -0.859375 C 6.6875 -0.859375 6.632812 -0.847656 6.59375 -0.828125 C 6.550781 -0.816406 6.53125 -0.78125 6.53125 -0.71875 C 6.53125 -0.664062 6.304688 -0.53125 5.859375 -0.3125 C 5.410156 -0.101562 5.046875 0.03125 4.765625 0.09375 Z M 3.953125 4.265625 C 3.628906 4.265625 3.234375 4.207031 2.765625 4.09375 C 2.296875 3.988281 1.953125 3.894531 1.734375 3.8125 C 1.585938 3.75 1.460938 3.640625 1.359375 3.484375 C 1.253906 3.328125 1.203125 3.171875 1.203125 3.015625 C 1.203125 2.847656 1.25 2.710938 1.34375 2.609375 C 1.4375 2.515625 1.582031 2.46875 1.78125 2.46875 C 1.9375 2.46875 2.21875 2.539062 2.625 2.6875 C 3.070312 2.832031 3.394531 2.90625 3.59375 2.90625 C 3.863281 2.90625 4.050781 2.800781 4.15625 2.59375 C 4.195312 2.539062 4.21875 2.472656 4.21875 2.390625 C 4.21875 2.296875 4.175781 2.1875 4.09375 2.0625 C 4.007812 1.9375 3.929688 1.835938 3.859375 1.765625 C 3.785156 1.691406 3.734375 1.628906 3.703125 1.578125 C 3.535156 1.378906 3.3125 1.144531 3.03125 0.875 C 2.882812 0.644531 2.8125 0.457031 2.8125 0.3125 C 2.8125 -0.175781 3.40625 -0.71875 4.59375 -1.3125 L 5.828125 -0.65625 C 5.410156 -0.457031 5.097656 -0.28125 4.890625 -0.125 C 4.691406 0.03125 4.59375 0.195312 4.59375 0.375 C 4.601562 0.40625 4.75 0.597656 5.03125 0.953125 C 5.1875 1.117188 5.332031 1.300781 5.46875 1.5 C 5.613281 1.695312 5.707031 1.882812 5.75 2.0625 C 5.78125 2.238281 5.796875 2.363281 5.796875 2.4375 C 5.796875 2.925781 5.601562 3.351562 5.21875 3.71875 C 4.832031 4.082031 4.410156 4.265625 3.953125 4.265625 Z M 3.953125 4.265625 "/></g></g></g><g fill="#ffffff" fill-opacity="1"><g transform="translate(234.203157, 194.624987)"><g><path d="M 2.640625 -0.46875 C 2.585938 -0.550781 2.457031 -0.664062 2.25 -0.8125 C 2.050781 -0.957031 1.953125 -1.046875 1.953125 -1.078125 C 1.953125 -1.140625 1.914062 -1.222656 1.84375 -1.328125 C 1.78125 -1.441406 1.722656 -1.539062 1.671875 -1.625 C 1.546875 -1.738281 1.625 -2.117188 1.90625 -2.765625 C 2.1875 -3.410156 2.5625 -4.175781 3.03125 -5.0625 C 3.113281 -5.144531 3.222656 -5.296875 3.359375 -5.515625 C 3.503906 -5.742188 3.597656 -5.867188 3.640625 -5.890625 C 3.640625 -5.953125 3.660156 -6.007812 3.703125 -6.0625 C 3.753906 -6.113281 3.804688 -6.140625 3.859375 -6.140625 L 4.046875 -6.484375 C 4.097656 -6.617188 4.378906 -6.9375 4.890625 -7.4375 C 5.410156 -7.9375 5.816406 -8.273438 6.109375 -8.453125 C 6.390625 -8.640625 6.691406 -8.734375 7.015625 -8.734375 C 7.367188 -8.734375 7.671875 -8.628906 7.921875 -8.421875 L 8.515625 -7.921875 C 8.953125 -7.554688 9.195312 -7.34375 9.25 -7.28125 L 10.0625 -6.5625 L 9.703125 -5.453125 C 9.566406 -5.054688 9.5 -4.679688 9.5 -4.328125 C 9.5 -3.773438 9.648438 -3.253906 9.953125 -2.765625 C 10.023438 -2.609375 10.125 -2.484375 10.25 -2.390625 C 10.375 -2.304688 10.539062 -2.25 10.75 -2.21875 C 11.070312 -2.164062 11.234375 -2.003906 11.234375 -1.734375 C 11.234375 -1.410156 11.175781 -1.164062 11.0625 -1 C 10.945312 -0.84375 10.804688 -0.742188 10.640625 -0.703125 C 10.410156 -0.671875 10.25 -0.65625 10.15625 -0.65625 C 9.726562 -0.65625 9.335938 -0.765625 8.984375 -0.984375 C 8.640625 -1.203125 8.332031 -1.578125 8.0625 -2.109375 C 8.007812 -2.203125 7.929688 -2.363281 7.828125 -2.59375 C 7.734375 -2.832031 7.679688 -2.992188 7.671875 -3.078125 C 7.566406 -2.929688 7.398438 -2.742188 7.171875 -2.515625 C 5.660156 -0.984375 4.4375 -0.21875 3.5 -0.21875 C 3.175781 -0.21875 2.890625 -0.300781 2.640625 -0.46875 Z M 3.84375 -2.28125 C 4.082031 -2.257812 4.535156 -2.523438 5.203125 -3.078125 C 5.273438 -3.140625 5.351562 -3.207031 5.4375 -3.28125 C 5.53125 -3.363281 5.628906 -3.453125 5.734375 -3.546875 C 6.148438 -3.878906 6.46875 -4.160156 6.6875 -4.390625 C 6.914062 -4.617188 7.148438 -4.894531 7.390625 -5.21875 L 7.875 -6 C 7.726562 -6.320312 7.59375 -6.535156 7.46875 -6.640625 C 7.351562 -6.753906 7.238281 -6.8125 7.125 -6.8125 C 6.832031 -6.8125 6.460938 -6.550781 6.015625 -6.03125 C 5.578125 -5.519531 5.050781 -4.734375 4.4375 -3.671875 C 4.28125 -3.410156 4.148438 -3.132812 4.046875 -2.84375 C 3.941406 -2.5625 3.875 -2.375 3.84375 -2.28125 Z M 9.484375 -9.15625 C 9.242188 -9.15625 9.039062 -9.191406 8.875 -9.265625 C 8.71875 -9.335938 8.5625 -9.425781 8.40625 -9.53125 C 8.257812 -9.644531 8.148438 -9.722656 8.078125 -9.765625 C 8.015625 -9.796875 7.910156 -9.878906 7.765625 -10.015625 C 7.617188 -10.160156 7.472656 -10.28125 7.328125 -10.375 C 7.179688 -10.476562 7.054688 -10.53125 6.953125 -10.53125 C 6.847656 -10.53125 6.757812 -10.5 6.6875 -10.4375 C 6.613281 -10.382812 6.523438 -10.289062 6.421875 -10.15625 C 6.367188 -10.070312 6.300781 -9.988281 6.21875 -9.90625 C 6.132812 -9.832031 6.039062 -9.785156 5.9375 -9.765625 C 5.925781 -9.679688 5.882812 -9.585938 5.8125 -9.484375 C 5.738281 -9.378906 5.6875 -9.363281 5.65625 -9.4375 C 5.445312 -9.46875 5.285156 -9.554688 5.171875 -9.703125 C 5.054688 -9.847656 5 -10.015625 5 -10.203125 C 5 -10.398438 5.125 -10.679688 5.375 -11.046875 C 5.632812 -11.421875 5.984375 -11.722656 6.421875 -11.953125 C 6.597656 -12.003906 6.78125 -12.03125 6.96875 -12.03125 C 7.394531 -12.03125 7.734375 -11.914062 7.984375 -11.6875 C 8.296875 -11.382812 8.539062 -11.175781 8.71875 -11.0625 C 8.90625 -10.945312 9.085938 -10.890625 9.265625 -10.890625 C 9.335938 -10.890625 9.460938 -10.921875 9.640625 -10.984375 C 9.828125 -11.035156 10.101562 -11.148438 10.46875 -11.328125 C 10.75 -11.472656 11.007812 -11.597656 11.25 -11.703125 C 11.394531 -11.765625 11.539062 -11.679688 11.6875 -11.453125 C 11.832031 -11.234375 11.890625 -11.050781 11.859375 -10.90625 C 11.859375 -10.789062 11.8125 -10.648438 11.71875 -10.484375 C 11.632812 -10.316406 11.476562 -10.171875 11.25 -10.046875 C 11.1875 -10.023438 11 -9.925781 10.6875 -9.75 C 10.34375 -9.539062 10.070312 -9.390625 9.875 -9.296875 C 9.6875 -9.203125 9.554688 -9.15625 9.484375 -9.15625 Z M 9.484375 -9.15625 "/></g></g></g><g fill="#ffffff" fill-opacity="1"><g transform="translate(243.815438, 194.624987)"><g><path d="M 3.703125 -0.15625 C 3.523438 -0.15625 3.382812 -0.179688 3.28125 -0.234375 C 3.175781 -0.296875 3.03125 -0.410156 2.84375 -0.578125 C 2.539062 -0.878906 2.304688 -1.195312 2.140625 -1.53125 C 1.984375 -1.863281 1.929688 -2.148438 1.984375 -2.390625 C 2.023438 -2.492188 2.039062 -2.597656 2.03125 -2.703125 C 2.03125 -2.804688 2.03125 -2.875 2.03125 -2.90625 C 1.96875 -2.957031 1.9375 -2.992188 1.9375 -3.015625 C 1.9375 -3.046875 1.953125 -3.070312 1.984375 -3.09375 C 2.015625 -3.113281 2.035156 -3.140625 2.046875 -3.171875 C 2.128906 -3.171875 2.160156 -3.25 2.140625 -3.40625 C 2.109375 -3.53125 2.15625 -3.789062 2.28125 -4.1875 C 2.414062 -4.582031 2.585938 -4.945312 2.796875 -5.28125 C 2.953125 -5.539062 3.1875 -5.867188 3.5 -6.265625 C 3.820312 -6.660156 4.109375 -6.960938 4.359375 -7.171875 C 5.085938 -7.804688 5.75 -8.1875 6.34375 -8.3125 C 6.632812 -8.382812 6.914062 -8.421875 7.1875 -8.421875 C 7.613281 -8.421875 7.945312 -8.304688 8.1875 -8.078125 C 8.507812 -7.941406 8.742188 -7.75 8.890625 -7.5 C 9.035156 -7.25 9.128906 -6.921875 9.171875 -6.515625 C 9.191406 -6.421875 9.203125 -6.273438 9.203125 -6.078125 C 9.203125 -4.984375 8.789062 -3.851562 7.96875 -2.6875 C 7.625 -2.195312 7.285156 -1.804688 6.953125 -1.515625 C 6.617188 -1.222656 6.207031 -0.929688 5.71875 -0.640625 C 5.457031 -0.460938 5.175781 -0.34375 4.875 -0.28125 C 4.582031 -0.226562 4.191406 -0.1875 3.703125 -0.15625 Z M 5.9375 -2.84375 C 6.21875 -3.09375 6.421875 -3.34375 6.546875 -3.59375 C 6.671875 -3.851562 6.847656 -4.304688 7.078125 -4.953125 C 7.171875 -5.078125 7.21875 -5.335938 7.21875 -5.734375 C 7.21875 -6.085938 7.164062 -6.289062 7.0625 -6.34375 C 6.988281 -6.394531 6.898438 -6.421875 6.796875 -6.421875 C 6.660156 -6.421875 6.445312 -6.316406 6.15625 -6.109375 C 5.644531 -5.671875 5.21875 -5.210938 4.875 -4.734375 C 4.53125 -4.265625 4.289062 -3.722656 4.15625 -3.109375 C 4.144531 -3.046875 4.140625 -2.957031 4.140625 -2.84375 C 4.140625 -2.34375 4.3125 -2.09375 4.65625 -2.09375 C 5 -2.09375 5.425781 -2.34375 5.9375 -2.84375 Z M 5.9375 -2.84375 "/></g></g></g></svg>