<svg xmlns="http://www.w3.org/2000/svg" xmlns:xlink="http://www.w3.org/1999/xlink" width="500" zoomAndPan="magnify" viewBox="0 0 375 374.999991" height="500" preserveAspectRatio="xMidYMid meet" version="1.0"><defs><g/></defs><g fill="#ffffff" fill-opacity="1"><g transform="translate(3.689146, 201.325007)"><g><path d="M 2.765625 6.125 C 2.316406 6.363281 1.828125 6.484375 1.296875 6.484375 C 0.773438 6.484375 0.265625 6.367188 -0.234375 6.140625 C -0.734375 5.921875 -1.15625 5.632812 -1.5 5.28125 C -1.625 5.132812 -1.6875 4.882812 -1.6875 4.53125 C -1.6875 4.144531 -1.625 3.753906 -1.5 3.359375 C -1.394531 2.992188 -1.265625 2.8125 -1.109375 2.8125 C -1.023438 2.8125 -0.910156 2.867188 -0.765625 2.984375 C -0.617188 3.097656 -0.484375 3.234375 -0.359375 3.390625 C 0.0351562 3.734375 0.414062 3.90625 0.78125 3.90625 C 1.5 3.90625 2.257812 3.285156 3.0625 2.046875 L 3.84375 0.296875 C 4.957031 -2.160156 5.585938 -3.597656 5.734375 -4.015625 C 5.734375 -4.035156 5.742188 -4.078125 5.765625 -4.140625 C 5.785156 -4.203125 5.820312 -4.269531 5.875 -4.34375 C 5.894531 -4.425781 5.953125 -4.597656 6.046875 -4.859375 C 6.140625 -5.117188 6.210938 -5.390625 6.265625 -5.671875 L 7.53125 -9.234375 C 7.613281 -9.640625 7.726562 -10.078125 7.875 -10.546875 C 8.019531 -11.015625 8.15625 -11.410156 8.28125 -11.734375 C 8.363281 -11.890625 8.664062 -12.75 9.1875 -14.3125 L 9.59375 -15.625 C 9.820312 -16.332031 10.007812 -16.945312 10.15625 -17.46875 C 10.300781 -18 10.351562 -18.296875 10.3125 -18.359375 L 8.640625 -18.0625 C 8.203125 -17.882812 7.832031 -17.796875 7.53125 -17.796875 C 7.226562 -17.796875 7.109375 -17.90625 7.171875 -18.125 L 7.171875 -18.453125 C 7.085938 -18.367188 6.957031 -18.472656 6.78125 -18.765625 C 6.601562 -19.054688 6.523438 -19.289062 6.546875 -19.46875 C 6.546875 -19.625 6.785156 -19.804688 7.265625 -20.015625 C 7.742188 -20.234375 8.28125 -20.378906 8.875 -20.453125 L 10.375 -20.640625 C 10.5625 -20.660156 10.960938 -20.703125 11.578125 -20.765625 C 11.679688 -20.835938 12 -20.757812 12.53125 -20.53125 C 13.070312 -20.300781 13.425781 -20.109375 13.59375 -19.953125 C 13.75 -19.734375 13.828125 -19.515625 13.828125 -19.296875 C 13.828125 -19.015625 13.738281 -18.617188 13.5625 -18.109375 C 13.394531 -17.597656 13.015625 -16.53125 12.421875 -14.90625 L 11.4375 -12.125 C 10.945312 -10.664062 10.570312 -9.632812 10.3125 -9.03125 C 10.238281 -8.769531 10.128906 -8.445312 9.984375 -8.0625 C 9.648438 -7.082031 9.398438 -6.304688 9.234375 -5.734375 C 8.992188 -5.171875 8.734375 -4.410156 8.453125 -3.453125 C 8.453125 -3.285156 8.410156 -3.101562 8.328125 -2.90625 C 8.253906 -2.707031 8.164062 -2.554688 8.0625 -2.453125 L 7.34375 -0.6875 L 7.078125 0.03125 C 7.035156 0.144531 6.929688 0.410156 6.765625 0.828125 C 6.597656 1.253906 6.441406 1.566406 6.296875 1.765625 C 6.234375 1.929688 6.125 2.144531 5.96875 2.40625 C 5.8125 2.664062 5.734375 2.820312 5.734375 2.875 C 5.734375 2.894531 5.722656 2.929688 5.703125 2.984375 C 5.679688 3.035156 5.640625 3.0625 5.578125 3.0625 C 5.554688 3.082031 5.519531 3.113281 5.46875 3.15625 C 5.425781 3.207031 5.40625 3.273438 5.40625 3.359375 C 5.300781 3.597656 4.910156 4.070312 4.234375 4.78125 C 3.566406 5.488281 3.078125 5.9375 2.765625 6.125 Z M 2.765625 6.125 "/></g></g></g><g fill="#ffffff" fill-opacity="1"><g transform="translate(13.135477, 201.325007)"><g><path d="M 5.046875 -0.203125 C 4.804688 -0.203125 4.613281 -0.242188 4.46875 -0.328125 C 4.332031 -0.410156 4.132812 -0.5625 3.875 -0.78125 C 3.46875 -1.195312 3.15625 -1.628906 2.9375 -2.078125 C 2.71875 -2.535156 2.640625 -2.929688 2.703125 -3.265625 C 2.765625 -3.410156 2.789062 -3.550781 2.78125 -3.6875 C 2.769531 -3.832031 2.765625 -3.921875 2.765625 -3.953125 C 2.679688 -4.035156 2.640625 -4.09375 2.640625 -4.125 C 2.640625 -4.15625 2.660156 -4.1875 2.703125 -4.21875 C 2.742188 -4.25 2.773438 -4.28125 2.796875 -4.3125 C 2.910156 -4.3125 2.945312 -4.425781 2.90625 -4.65625 C 2.863281 -4.8125 2.929688 -5.160156 3.109375 -5.703125 C 3.296875 -6.242188 3.53125 -6.742188 3.8125 -7.203125 C 4.03125 -7.554688 4.351562 -8.003906 4.78125 -8.546875 C 5.21875 -9.085938 5.601562 -9.5 5.9375 -9.78125 C 6.9375 -10.632812 7.835938 -11.15625 8.640625 -11.34375 C 9.035156 -11.4375 9.425781 -11.484375 9.8125 -11.484375 C 10.394531 -11.484375 10.84375 -11.328125 11.15625 -11.015625 C 11.59375 -10.828125 11.910156 -10.5625 12.109375 -10.21875 C 12.316406 -9.882812 12.453125 -9.4375 12.515625 -8.875 C 12.535156 -8.757812 12.546875 -8.5625 12.546875 -8.28125 C 12.546875 -6.800781 11.984375 -5.257812 10.859375 -3.65625 C 10.398438 -3 9.941406 -2.46875 9.484375 -2.0625 C 9.023438 -1.664062 8.460938 -1.269531 7.796875 -0.875 C 7.441406 -0.632812 7.0625 -0.472656 6.65625 -0.390625 C 6.257812 -0.304688 5.722656 -0.242188 5.046875 -0.203125 Z M 8.09375 -3.875 C 8.476562 -4.207031 8.753906 -4.550781 8.921875 -4.90625 C 9.097656 -5.257812 9.34375 -5.875 9.65625 -6.75 C 9.78125 -6.925781 9.84375 -7.285156 9.84375 -7.828125 C 9.84375 -8.304688 9.769531 -8.578125 9.625 -8.640625 C 9.53125 -8.722656 9.410156 -8.765625 9.265625 -8.765625 C 9.085938 -8.765625 8.800781 -8.625 8.40625 -8.34375 C 7.695312 -7.738281 7.109375 -7.109375 6.640625 -6.453125 C 6.171875 -5.804688 5.847656 -5.066406 5.671875 -4.234375 C 5.648438 -4.148438 5.640625 -4.03125 5.640625 -3.875 C 5.640625 -3.1875 5.878906 -2.84375 6.359375 -2.84375 C 6.816406 -2.84375 7.394531 -3.1875 8.09375 -3.875 Z M 8.09375 -3.875 "/></g></g></g><g fill="#ffffff" fill-opacity="1"><g transform="translate(23.991261, 201.325007)"><g><path d="M 4.140625 -1.140625 C 3.773438 -1.203125 3.441406 -1.398438 3.140625 -1.734375 C 2.847656 -2.078125 2.703125 -2.46875 2.703125 -2.90625 C 2.703125 -3.382812 3 -4.613281 3.59375 -6.59375 C 3.695312 -7.113281 3.921875 -7.785156 4.265625 -8.609375 C 4.378906 -8.953125 4.445312 -9.148438 4.46875 -9.203125 C 4.832031 -10.410156 5.320312 -11.882812 5.9375 -13.625 L 6.203125 -14.34375 C 6.910156 -16.238281 7.332031 -17.394531 7.46875 -17.8125 L 7.953125 -19.140625 C 7.953125 -19.296875 8.066406 -19.445312 8.296875 -19.59375 C 8.523438 -19.75 8.71875 -19.828125 8.875 -19.828125 C 9.195312 -19.828125 9.507812 -19.613281 9.8125 -19.1875 C 10.113281 -18.769531 10.273438 -18.332031 10.296875 -17.875 C 10.296875 -17.632812 10.242188 -17.414062 10.140625 -17.21875 C 9.679688 -16.21875 9.113281 -14.664062 8.4375 -12.5625 C 8.132812 -11.6875 7.832031 -10.851562 7.53125 -10.0625 C 7.226562 -9.269531 6.988281 -8.707031 6.8125 -8.375 L 6.484375 -7.703125 L 6.0625 -6.125 C 6.0625 -6.0625 6.050781 -6.007812 6.03125 -5.96875 C 6.007812 -5.925781 6 -5.894531 6 -5.875 C 6 -5.820312 6.007812 -5.796875 6.03125 -5.796875 L 6.546875 -6.296875 C 7.117188 -6.878906 7.804688 -7.46875 8.609375 -8.0625 C 9.265625 -8.53125 9.601562 -8.789062 9.625 -8.84375 C 9.644531 -8.90625 9.726562 -9 9.875 -9.125 L 10.171875 -9.359375 C 10.804688 -9.816406 11.492188 -10.046875 12.234375 -10.046875 C 12.453125 -10.046875 12.710938 -9.9375 13.015625 -9.71875 C 13.316406 -9.5 13.570312 -9.191406 13.78125 -8.796875 C 13.988281 -8.410156 14.09375 -8 14.09375 -7.5625 L 14.09375 -7.109375 C 14.09375 -6.609375 14 -5.953125 13.8125 -5.140625 C 13.625 -4.335938 13.519531 -3.875 13.5 -3.75 C 13.601562 -3.75 13.753906 -3.769531 13.953125 -3.8125 C 14.253906 -3.8125 14.46875 -3.78125 14.59375 -3.71875 C 14.726562 -3.65625 14.84375 -3.570312 14.9375 -3.46875 C 15.039062 -3.375 15.128906 -3.316406 15.203125 -3.296875 C 15.242188 -3.253906 15.265625 -3.195312 15.265625 -3.125 C 15.265625 -2.664062 15.015625 -2.265625 14.515625 -1.921875 C 14.015625 -1.578125 13.535156 -1.382812 13.078125 -1.34375 C 12.515625 -1.34375 12.0625 -1.550781 11.71875 -1.96875 C 11.382812 -2.394531 11.21875 -2.910156 11.21875 -3.515625 C 11.21875 -3.753906 11.226562 -3.992188 11.25 -4.234375 C 11.269531 -4.472656 11.289062 -4.679688 11.3125 -4.859375 C 11.375 -5.253906 11.40625 -5.570312 11.40625 -5.8125 C 11.40625 -6.070312 11.378906 -6.25 11.328125 -6.34375 C 11.273438 -6.4375 11.1875 -6.484375 11.0625 -6.484375 C 10.664062 -6.484375 9.972656 -6.117188 8.984375 -5.390625 C 7.992188 -4.660156 6.988281 -3.710938 5.96875 -2.546875 C 5.332031 -1.609375 4.722656 -1.140625 4.140625 -1.140625 Z M 4.140625 -1.140625 "/></g></g></g><g fill="#ffffff" fill-opacity="1"><g transform="translate(38.175755, 201.325007)"><g><path d="M 13.265625 -0.71875 C 12.003906 -0.757812 11.375 -1.46875 11.375 -2.84375 C 11.375 -3.226562 11.398438 -3.597656 11.453125 -3.953125 C 11.492188 -4.398438 11.515625 -4.710938 11.515625 -4.890625 L 11.515625 -5.375 C 11.460938 -5.769531 11.332031 -5.96875 11.125 -5.96875 C 10.769531 -5.96875 10.109375 -5.625 9.140625 -4.9375 C 8.171875 -4.25 7.15625 -3.421875 6.09375 -2.453125 C 5.769531 -2.117188 5.5 -1.800781 5.28125 -1.5 C 5.082031 -1.238281 4.929688 -1.078125 4.828125 -1.015625 C 4.734375 -0.960938 4.570312 -0.9375 4.34375 -0.9375 C 4.070312 -0.96875 3.753906 -1.171875 3.390625 -1.546875 C 3.023438 -1.929688 2.785156 -2.273438 2.671875 -2.578125 C 2.671875 -3.140625 2.769531 -3.675781 2.96875 -4.1875 C 3.164062 -4.695312 3.46875 -5.34375 3.875 -6.125 C 4.050781 -6.71875 4.28125 -7.316406 4.5625 -7.921875 C 4.863281 -8.617188 5.078125 -9.148438 5.203125 -9.515625 C 5.335938 -9.890625 5.421875 -10.28125 5.453125 -10.6875 C 5.453125 -10.695312 5.445312 -10.703125 5.4375 -10.703125 C 5.4375 -10.785156 5.460938 -10.859375 5.515625 -10.921875 C 5.578125 -10.984375 5.648438 -11.015625 5.734375 -11.015625 C 5.773438 -11.066406 5.894531 -11.09375 6.09375 -11.09375 C 6.613281 -11.09375 7.0625 -10.953125 7.4375 -10.671875 C 7.820312 -10.398438 8.015625 -9.972656 8.015625 -9.390625 C 8.015625 -9.085938 7.957031 -8.800781 7.84375 -8.53125 C 7.738281 -8.257812 7.535156 -7.816406 7.234375 -7.203125 L 6.90625 -6.546875 C 6.84375 -6.421875 6.75 -6.242188 6.625 -6.015625 C 6.507812 -5.785156 6.453125 -5.640625 6.453125 -5.578125 C 6.953125 -5.921875 7.539062 -6.375 8.21875 -6.9375 C 9.21875 -7.726562 10.035156 -8.34375 10.671875 -8.78125 C 11.316406 -9.226562 11.789062 -9.453125 12.09375 -9.453125 C 12.351562 -9.453125 12.71875 -9.304688 13.1875 -9.015625 C 13.65625 -8.722656 13.929688 -8.457031 14.015625 -8.21875 C 14.015625 -8.082031 14 -7.875 13.96875 -7.59375 C 13.9375 -7.3125 13.910156 -7.0625 13.890625 -6.84375 L 13.921875 -5.90625 C 13.941406 -5.75 13.953125 -5.507812 13.953125 -5.1875 C 13.953125 -4.550781 13.910156 -4.101562 13.828125 -3.84375 C 13.847656 -3.820312 13.867188 -3.789062 13.890625 -3.75 C 13.910156 -3.707031 13.921875 -3.675781 13.921875 -3.65625 L 13.890625 -3.59375 C 13.910156 -3.394531 14.019531 -3.078125 14.21875 -2.640625 C 14.414062 -2.203125 14.515625 -1.960938 14.515625 -1.921875 C 14.515625 -1.703125 14.367188 -1.457031 14.078125 -1.1875 C 13.796875 -0.914062 13.523438 -0.757812 13.265625 -0.71875 Z M 13.265625 -0.71875 "/></g></g></g><g fill="#ffffff" fill-opacity="1"><g transform="translate(51.94041, 201.325007)"><g><path d="M 13.265625 -0.71875 C 12.003906 -0.757812 11.375 -1.46875 11.375 -2.84375 C 11.375 -3.226562 11.398438 -3.597656 11.453125 -3.953125 C 11.492188 -4.398438 11.515625 -4.710938 11.515625 -4.890625 L 11.515625 -5.375 C 11.460938 -5.769531 11.332031 -5.96875 11.125 -5.96875 C 10.769531 -5.96875 10.109375 -5.625 9.140625 -4.9375 C 8.171875 -4.25 7.15625 -3.421875 6.09375 -2.453125 C 5.769531 -2.117188 5.5 -1.800781 5.28125 -1.5 C 5.082031 -1.238281 4.929688 -1.078125 4.828125 -1.015625 C 4.734375 -0.960938 4.570312 -0.9375 4.34375 -0.9375 C 4.070312 -0.96875 3.753906 -1.171875 3.390625 -1.546875 C 3.023438 -1.929688 2.785156 -2.273438 2.671875 -2.578125 C 2.671875 -3.140625 2.769531 -3.675781 2.96875 -4.1875 C 3.164062 -4.695312 3.46875 -5.34375 3.875 -6.125 C 4.050781 -6.71875 4.28125 -7.316406 4.5625 -7.921875 C 4.863281 -8.617188 5.078125 -9.148438 5.203125 -9.515625 C 5.335938 -9.890625 5.421875 -10.28125 5.453125 -10.6875 C 5.453125 -10.695312 5.445312 -10.703125 5.4375 -10.703125 C 5.4375 -10.785156 5.460938 -10.859375 5.515625 -10.921875 C 5.578125 -10.984375 5.648438 -11.015625 5.734375 -11.015625 C 5.773438 -11.066406 5.894531 -11.09375 6.09375 -11.09375 C 6.613281 -11.09375 7.0625 -10.953125 7.4375 -10.671875 C 7.820312 -10.398438 8.015625 -9.972656 8.015625 -9.390625 C 8.015625 -9.085938 7.957031 -8.800781 7.84375 -8.53125 C 7.738281 -8.257812 7.535156 -7.816406 7.234375 -7.203125 L 6.90625 -6.546875 C 6.84375 -6.421875 6.75 -6.242188 6.625 -6.015625 C 6.507812 -5.785156 6.453125 -5.640625 6.453125 -5.578125 C 6.953125 -5.921875 7.539062 -6.375 8.21875 -6.9375 C 9.21875 -7.726562 10.035156 -8.34375 10.671875 -8.78125 C 11.316406 -9.226562 11.789062 -9.453125 12.09375 -9.453125 C 12.351562 -9.453125 12.71875 -9.304688 13.1875 -9.015625 C 13.65625 -8.722656 13.929688 -8.457031 14.015625 -8.21875 C 14.015625 -8.082031 14 -7.875 13.96875 -7.59375 C 13.9375 -7.3125 13.910156 -7.0625 13.890625 -6.84375 L 13.921875 -5.90625 C 13.941406 -5.75 13.953125 -5.507812 13.953125 -5.1875 C 13.953125 -4.550781 13.910156 -4.101562 13.828125 -3.84375 C 13.847656 -3.820312 13.867188 -3.789062 13.890625 -3.75 C 13.910156 -3.707031 13.921875 -3.675781 13.921875 -3.65625 L 13.890625 -3.59375 C 13.910156 -3.394531 14.019531 -3.078125 14.21875 -2.640625 C 14.414062 -2.203125 14.515625 -1.960938 14.515625 -1.921875 C 14.515625 -1.703125 14.367188 -1.457031 14.078125 -1.1875 C 13.796875 -0.914062 13.523438 -0.757812 13.265625 -0.71875 Z M 13.265625 -0.71875 "/></g></g></g><g fill="#ffffff" fill-opacity="1"><g transform="translate(65.705065, 201.325007)"><g><path d="M 11.90625 -11.0625 C 12.164062 -10.789062 12.351562 -10.554688 12.46875 -10.359375 C 12.59375 -10.171875 12.65625 -9.945312 12.65625 -9.6875 C 12.65625 -9.269531 12.5 -8.769531 12.1875 -8.1875 C 12.019531 -7.726562 11.84375 -7.296875 11.65625 -6.890625 C 11.46875 -6.492188 11.320312 -6.238281 11.21875 -6.125 L 10.53125 -4.53125 C 10.226562 -3.875 9.859375 -3.101562 9.421875 -2.21875 C 8.878906 -1.101562 8.5 -0.273438 8.28125 0.265625 L 7.890625 0.90625 C 6.890625 2.5 6.117188 3.617188 5.578125 4.265625 C 5.140625 4.660156 4.617188 5.070312 4.015625 5.5 C 3.421875 5.9375 2.941406 6.179688 2.578125 6.234375 C 2.203125 6.316406 1.78125 6.359375 1.3125 6.359375 C 0.5 6.359375 -0.222656 6.21875 -0.859375 5.9375 C -1.503906 5.65625 -1.878906 5.316406 -1.984375 4.921875 L -2.046875 4.5625 C -2.046875 4.21875 -1.910156 3.953125 -1.640625 3.765625 C -1.367188 3.578125 -1.070312 3.484375 -0.75 3.484375 C -0.550781 3.484375 -0.398438 3.53125 -0.296875 3.625 C -0.253906 3.644531 -0.0976562 3.753906 0.171875 3.953125 C 0.453125 4.160156 0.832031 4.265625 1.3125 4.265625 C 2.21875 4.265625 3.097656 3.671875 3.953125 2.484375 C 4.796875 1.148438 5.4375 0.0820312 5.875 -0.71875 C 5.476562 -0.957031 5.085938 -1.363281 4.703125 -1.9375 C 4.328125 -2.507812 4.160156 -2.90625 4.203125 -3.125 L 4.203125 -3.453125 C 4.035156 -3.453125 3.914062 -3.75 3.84375 -4.34375 C 3.78125 -4.945312 3.75 -5.6875 3.75 -6.5625 C 3.75 -7.53125 3.769531 -8.203125 3.8125 -8.578125 C 3.894531 -8.898438 3.9375 -9.296875 3.9375 -9.765625 C 3.945312 -10.234375 3.953125 -10.539062 3.953125 -10.6875 C 3.941406 -10.957031 4 -11.195312 4.125 -11.40625 C 4.25 -11.625 4.375 -11.769531 4.5 -11.84375 C 4.757812 -11.945312 4.96875 -12 5.125 -12 C 6.050781 -12 6.515625 -11.019531 6.515625 -9.0625 C 6.515625 -8.675781 6.503906 -8.382812 6.484375 -8.1875 C 6.441406 -7.226562 6.421875 -6.550781 6.421875 -6.15625 C 6.421875 -4.613281 6.628906 -3.613281 7.046875 -3.15625 C 7.222656 -3.570312 7.375 -3.867188 7.5 -4.046875 C 7.78125 -4.628906 7.941406 -5 7.984375 -5.15625 C 8.023438 -5.300781 8.132812 -5.53125 8.3125 -5.84375 L 8.703125 -6.65625 C 8.742188 -6.78125 8.875 -7.164062 9.09375 -7.8125 C 9.3125 -8.46875 9.53125 -8.992188 9.75 -9.390625 C 9.832031 -9.546875 9.953125 -9.78125 10.109375 -10.09375 C 10.265625 -10.40625 10.394531 -10.628906 10.5 -10.765625 C 10.601562 -10.910156 10.710938 -11.003906 10.828125 -11.046875 C 10.984375 -11.179688 11.15625 -11.25 11.34375 -11.25 C 11.519531 -11.25 11.707031 -11.1875 11.90625 -11.0625 Z M 11.90625 -11.0625 "/></g></g></g><g fill="#ffffff" fill-opacity="1"><g transform="translate(75.931093, 201.325007)"><g/></g></g><g fill="#ffffff" fill-opacity="1"><g transform="translate(83.188272, 201.325007)"><g><path d="M 1.828125 0.984375 C 1.609375 0.867188 1.453125 0.757812 1.359375 0.65625 C 1.273438 0.5625 1.234375 0.429688 1.234375 0.265625 C 1.234375 0.0664062 1.316406 -0.210938 1.484375 -0.578125 C 1.648438 -0.953125 1.945312 -1.539062 2.375 -2.34375 C 2.488281 -2.601562 2.71875 -3.0625 3.0625 -3.71875 C 3.914062 -5.363281 4.34375 -6.570312 4.34375 -7.34375 C 4.320312 -7.382812 4.3125 -7.445312 4.3125 -7.53125 C 4.3125 -7.726562 4.472656 -7.90625 4.796875 -8.0625 C 4.859375 -8.125 5.070312 -8.296875 5.4375 -8.578125 C 5.8125 -8.859375 6.109375 -9.179688 6.328125 -9.546875 C 6.585938 -10.140625 6.914062 -10.800781 7.3125 -11.53125 C 7.71875 -12.257812 8.410156 -13.457031 9.390625 -15.125 C 10.347656 -16.882812 11.367188 -18.472656 12.453125 -19.890625 C 12.648438 -20.171875 12.875 -20.390625 13.125 -20.546875 C 13.375 -20.710938 13.585938 -20.796875 13.765625 -20.796875 C 14.390625 -20.796875 15.023438 -20.550781 15.671875 -20.0625 C 16.328125 -19.582031 16.753906 -19.101562 16.953125 -18.625 C 17.023438 -18.488281 17.0625 -18.191406 17.0625 -17.734375 C 17.0625 -17.109375 16.992188 -16.054688 16.859375 -14.578125 C 16.816406 -14.316406 16.773438 -13.90625 16.734375 -13.34375 C 16.679688 -12.445312 16.59375 -11.488281 16.46875 -10.46875 C 16.25 -8.226562 16.085938 -6.476562 15.984375 -5.21875 C 15.890625 -3.957031 15.84375 -2.78125 15.84375 -1.6875 C 15.84375 -1.125 15.851562 -0.710938 15.875 -0.453125 L 15.875 -0.234375 L 15.84375 0.453125 C 15.71875 0.566406 15.476562 0.625 15.125 0.625 C 14.71875 0.625 14.3125 0.554688 13.90625 0.421875 C 13.507812 0.296875 13.296875 0.144531 13.265625 -0.03125 C 13.242188 -0.0507812 13.210938 -0.0703125 13.171875 -0.09375 C 13.128906 -0.113281 13.109375 -0.203125 13.109375 -0.359375 L 13.140625 -1.015625 L 13.234375 -2.703125 L 13.375 -7.296875 L 12.984375 -7.265625 C 12.585938 -7.265625 11.742188 -7.179688 10.453125 -7.015625 C 9.160156 -6.859375 8.347656 -6.726562 8.015625 -6.625 C 7.828125 -6.625 7.601562 -6.503906 7.34375 -6.265625 C 7.082031 -6.023438 6.851562 -5.71875 6.65625 -5.34375 C 6.59375 -5.144531 6.453125 -4.859375 6.234375 -4.484375 C 6.015625 -4.117188 5.90625 -3.90625 5.90625 -3.84375 C 5.789062 -3.757812 5.6875 -3.648438 5.59375 -3.515625 C 5.5 -3.390625 5.445312 -3.304688 5.4375 -3.265625 C 5.4375 -3.046875 5.238281 -2.476562 4.84375 -1.5625 C 4.457031 -0.65625 4.070312 0.0820312 3.6875 0.65625 L 2.875 1.796875 Z M 9 -9.328125 C 9.132812 -9.347656 9.410156 -9.390625 9.828125 -9.453125 C 10.253906 -9.523438 10.628906 -9.570312 10.953125 -9.59375 C 11.910156 -9.832031 12.570312 -9.953125 12.9375 -9.953125 C 13.132812 -9.953125 13.269531 -9.9375 13.34375 -9.90625 C 13.40625 -9.820312 13.472656 -9.765625 13.546875 -9.734375 C 13.617188 -9.703125 13.664062 -9.6875 13.6875 -9.6875 C 13.71875 -9.851562 13.875 -10.941406 14.15625 -12.953125 C 14.4375 -14.972656 14.578125 -16.21875 14.578125 -16.6875 C 14.578125 -17 14.566406 -17.269531 14.546875 -17.5 C 14.523438 -17.726562 14.503906 -17.875 14.484375 -17.9375 C 14.304688 -17.9375 13.894531 -17.460938 13.25 -16.515625 C 12.613281 -15.566406 12 -14.492188 11.40625 -13.296875 C 10.9375 -12.472656 10.613281 -12.0625 10.4375 -12.0625 C 10.300781 -11.914062 10 -11.441406 9.53125 -10.640625 C 9.070312 -9.847656 8.894531 -9.410156 9 -9.328125 Z M 9 -9.328125 "/></g></g></g><g fill="#ffffff" fill-opacity="1"><g transform="translate(98.512322, 201.325007)"><g><path d="M 13.265625 -0.71875 C 12.003906 -0.757812 11.375 -1.46875 11.375 -2.84375 C 11.375 -3.226562 11.398438 -3.597656 11.453125 -3.953125 C 11.492188 -4.398438 11.515625 -4.710938 11.515625 -4.890625 L 11.515625 -5.375 C 11.460938 -5.769531 11.332031 -5.96875 11.125 -5.96875 C 10.769531 -5.96875 10.109375 -5.625 9.140625 -4.9375 C 8.171875 -4.25 7.15625 -3.421875 6.09375 -2.453125 C 5.769531 -2.117188 5.5 -1.800781 5.28125 -1.5 C 5.082031 -1.238281 4.929688 -1.078125 4.828125 -1.015625 C 4.734375 -0.960938 4.570312 -0.9375 4.34375 -0.9375 C 4.070312 -0.96875 3.753906 -1.171875 3.390625 -1.546875 C 3.023438 -1.929688 2.785156 -2.273438 2.671875 -2.578125 C 2.671875 -3.140625 2.769531 -3.675781 2.96875 -4.1875 C 3.164062 -4.695312 3.46875 -5.34375 3.875 -6.125 C 4.050781 -6.71875 4.28125 -7.316406 4.5625 -7.921875 C 4.863281 -8.617188 5.078125 -9.148438 5.203125 -9.515625 C 5.335938 -9.890625 5.421875 -10.28125 5.453125 -10.6875 C 5.453125 -10.695312 5.445312 -10.703125 5.4375 -10.703125 C 5.4375 -10.785156 5.460938 -10.859375 5.515625 -10.921875 C 5.578125 -10.984375 5.648438 -11.015625 5.734375 -11.015625 C 5.773438 -11.066406 5.894531 -11.09375 6.09375 -11.09375 C 6.613281 -11.09375 7.0625 -10.953125 7.4375 -10.671875 C 7.820312 -10.398438 8.015625 -9.972656 8.015625 -9.390625 C 8.015625 -9.085938 7.957031 -8.800781 7.84375 -8.53125 C 7.738281 -8.257812 7.535156 -7.816406 7.234375 -7.203125 L 6.90625 -6.546875 C 6.84375 -6.421875 6.75 -6.242188 6.625 -6.015625 C 6.507812 -5.785156 6.453125 -5.640625 6.453125 -5.578125 C 6.953125 -5.921875 7.539062 -6.375 8.21875 -6.9375 C 9.21875 -7.726562 10.035156 -8.34375 10.671875 -8.78125 C 11.316406 -9.226562 11.789062 -9.453125 12.09375 -9.453125 C 12.351562 -9.453125 12.71875 -9.304688 13.1875 -9.015625 C 13.65625 -8.722656 13.929688 -8.457031 14.015625 -8.21875 C 14.015625 -8.082031 14 -7.875 13.96875 -7.59375 C 13.9375 -7.3125 13.910156 -7.0625 13.890625 -6.84375 L 13.921875 -5.90625 C 13.941406 -5.75 13.953125 -5.507812 13.953125 -5.1875 C 13.953125 -4.550781 13.910156 -4.101562 13.828125 -3.84375 C 13.847656 -3.820312 13.867188 -3.789062 13.890625 -3.75 C 13.910156 -3.707031 13.921875 -3.675781 13.921875 -3.65625 L 13.890625 -3.59375 C 13.910156 -3.394531 14.019531 -3.078125 14.21875 -2.640625 C 14.414062 -2.203125 14.515625 -1.960938 14.515625 -1.921875 C 14.515625 -1.703125 14.367188 -1.457031 14.078125 -1.1875 C 13.796875 -0.914062 13.523438 -0.757812 13.265625 -0.71875 Z M 13.265625 -0.71875 "/></g></g></g><g fill="#ffffff" fill-opacity="1"><g transform="translate(112.276977, 201.325007)"><g><path d="M 11.21875 0.5625 C 10.957031 0.625 10.707031 0.566406 10.46875 0.390625 C 10.226562 0.210938 10.050781 0.00390625 9.9375 -0.234375 C 9.832031 -0.515625 9.757812 -0.789062 9.71875 -1.0625 C 9.675781 -1.332031 9.644531 -1.695312 9.625 -2.15625 L 9.59375 -3.1875 L 8.375 -2.0625 C 7.113281 -0.882812 5.941406 -0.296875 4.859375 -0.296875 C 4.535156 -0.359375 4.128906 -0.628906 3.640625 -1.109375 C 3.148438 -1.585938 2.835938 -2 2.703125 -2.34375 C 2.617188 -2.5 2.578125 -2.75 2.578125 -3.09375 C 2.578125 -3.851562 2.773438 -4.765625 3.171875 -5.828125 C 3.578125 -6.898438 4.082031 -7.769531 4.6875 -8.4375 C 5.125 -9.09375 5.648438 -9.585938 6.265625 -9.921875 C 6.890625 -10.265625 7.519531 -10.4375 8.15625 -10.4375 C 8.757812 -10.4375 9.289062 -10.304688 9.75 -10.046875 C 10.03125 -9.910156 10.257812 -9.84375 10.4375 -9.84375 C 10.632812 -9.84375 10.765625 -9.972656 10.828125 -10.234375 C 10.847656 -10.328125 10.96875 -10.726562 11.1875 -11.4375 L 11.515625 -12.390625 C 11.960938 -13.710938 12.34375 -14.769531 12.65625 -15.5625 C 12.976562 -16.363281 13.367188 -17.242188 13.828125 -18.203125 C 14.023438 -18.628906 14.234375 -18.941406 14.453125 -19.140625 C 14.679688 -19.335938 14.882812 -19.425781 15.0625 -19.40625 C 15.320312 -19.40625 15.601562 -19.320312 15.90625 -19.15625 C 16.21875 -18.988281 16.425781 -18.773438 16.53125 -18.515625 C 16.59375 -18.367188 16.625 -18.195312 16.625 -18 C 16.625 -17.78125 16.5625 -17.550781 16.4375 -17.3125 C 15.914062 -16.40625 15.273438 -14.929688 14.515625 -12.890625 C 13.753906 -10.859375 13.164062 -9.09375 12.75 -7.59375 C 12.59375 -7.050781 12.476562 -6.300781 12.40625 -5.34375 C 12.332031 -4.382812 12.296875 -3.441406 12.296875 -2.515625 C 12.296875 -1.640625 12.328125 -1.09375 12.390625 -0.875 C 12.429688 -0.75 12.453125 -0.585938 12.453125 -0.390625 C 12.453125 -0.046875 12.335938 0.1875 12.109375 0.3125 C 11.878906 0.445312 11.582031 0.53125 11.21875 0.5625 Z M 6.265625 -3.0625 C 6.722656 -3.238281 7.234375 -3.535156 7.796875 -3.953125 C 8.398438 -4.398438 8.835938 -4.789062 9.109375 -5.125 C 9.378906 -5.46875 9.59375 -5.898438 9.75 -6.421875 C 9.789062 -6.515625 9.8125 -6.65625 9.8125 -6.84375 C 9.8125 -7.195312 9.640625 -7.523438 9.296875 -7.828125 C 9.097656 -7.984375 8.867188 -8.0625 8.609375 -8.0625 C 8.191406 -8.0625 7.753906 -7.84375 7.296875 -7.40625 C 6.773438 -6.925781 6.351562 -6.390625 6.03125 -5.796875 C 5.707031 -5.210938 5.4375 -4.410156 5.21875 -3.390625 C 5.175781 -3.253906 5.195312 -3.140625 5.28125 -3.046875 C 5.363281 -2.953125 5.492188 -2.90625 5.671875 -2.90625 C 5.804688 -2.90625 6.003906 -2.957031 6.265625 -3.0625 Z M 6.265625 -3.0625 "/></g></g></g><g fill="#ffffff" fill-opacity="1"><g transform="translate(124.332297, 201.325007)"><g><path d="M 3.5625 -0.8125 C 3.289062 -1.03125 3.070312 -1.238281 2.90625 -1.4375 C 2.75 -1.632812 2.703125 -1.914062 2.765625 -2.28125 C 2.816406 -2.957031 2.960938 -3.75 3.203125 -4.65625 L 3.359375 -5.25 C 3.421875 -5.789062 3.734375 -6.851562 4.296875 -8.4375 C 4.867188 -10.03125 5.347656 -11.109375 5.734375 -11.671875 C 5.929688 -11.867188 6.269531 -11.96875 6.75 -11.96875 C 7.144531 -11.96875 7.425781 -11.890625 7.59375 -11.734375 C 7.75 -11.609375 7.828125 -11.40625 7.828125 -11.125 C 7.828125 -10.664062 7.535156 -9.859375 6.953125 -8.703125 L 6.65625 -8.0625 C 6.519531 -7.8125 6.40625 -7.570312 6.3125 -7.34375 C 6.226562 -7.125 6.234375 -7.023438 6.328125 -7.046875 C 6.546875 -7.429688 7.078125 -7.953125 7.921875 -8.609375 C 8.773438 -9.265625 9.363281 -9.675781 9.6875 -9.84375 C 9.832031 -9.914062 10.015625 -9.992188 10.234375 -10.078125 C 10.453125 -10.160156 10.601562 -10.222656 10.6875 -10.265625 C 11.039062 -10.441406 11.445312 -10.53125 11.90625 -10.53125 C 12.226562 -10.53125 12.503906 -10.484375 12.734375 -10.390625 C 12.960938 -10.304688 13.117188 -10.171875 13.203125 -9.984375 C 13.222656 -9.847656 13.273438 -9.738281 13.359375 -9.65625 C 13.453125 -9.582031 13.519531 -9.535156 13.5625 -9.515625 C 13.625 -9.515625 13.660156 -9.488281 13.671875 -9.4375 C 13.691406 -9.382812 13.703125 -9.347656 13.703125 -9.328125 C 13.703125 -9.171875 13.5625 -8.96875 13.28125 -8.71875 C 13.007812 -8.46875 12.722656 -8.332031 12.421875 -8.3125 C 12.203125 -8.289062 11.972656 -8.238281 11.734375 -8.15625 C 11.492188 -8.082031 11.253906 -7.984375 11.015625 -7.859375 L 10.234375 -7.40625 C 9.546875 -7.070312 8.96875 -6.738281 8.5 -6.40625 C 8.03125 -6.070312 7.554688 -5.644531 7.078125 -5.125 C 6.984375 -5.03125 6.835938 -4.890625 6.640625 -4.703125 C 6.453125 -4.523438 6.289062 -4.316406 6.15625 -4.078125 C 6.007812 -3.941406 5.859375 -3.578125 5.703125 -2.984375 C 5.554688 -2.390625 5.484375 -2.023438 5.484375 -1.890625 C 5.460938 -1.828125 5.421875 -1.707031 5.359375 -1.53125 C 5.304688 -1.351562 5.21875 -1.191406 5.09375 -1.046875 C 4.914062 -0.828125 4.765625 -0.664062 4.640625 -0.5625 C 4.523438 -0.46875 4.398438 -0.421875 4.265625 -0.421875 C 4.054688 -0.421875 3.820312 -0.550781 3.5625 -0.8125 Z M 3.5625 -0.8125 "/></g></g></g><g fill="#ffffff" fill-opacity="1"><g transform="translate(135.128104, 201.325007)"><g><path d="M 3.71875 -0.625 C 3.65625 -0.75 3.484375 -0.910156 3.203125 -1.109375 C 2.929688 -1.304688 2.796875 -1.425781 2.796875 -1.46875 C 2.796875 -1.550781 2.75 -1.664062 2.65625 -1.8125 C 2.5625 -1.96875 2.476562 -2.101562 2.40625 -2.21875 C 2.238281 -2.375 2.34375 -2.890625 2.71875 -3.765625 C 3.101562 -4.648438 3.617188 -5.695312 4.265625 -6.90625 C 4.378906 -7.019531 4.53125 -7.226562 4.71875 -7.53125 C 4.914062 -7.832031 5.039062 -8.003906 5.09375 -8.046875 C 5.09375 -8.117188 5.125 -8.191406 5.1875 -8.265625 C 5.25 -8.335938 5.320312 -8.375 5.40625 -8.375 L 5.640625 -8.84375 C 5.722656 -9.03125 6.113281 -9.460938 6.8125 -10.140625 C 7.507812 -10.816406 8.054688 -11.273438 8.453125 -11.515625 C 8.835938 -11.773438 9.25 -11.90625 9.6875 -11.90625 C 10.164062 -11.90625 10.578125 -11.765625 10.921875 -11.484375 L 11.734375 -10.796875 C 12.328125 -10.296875 12.664062 -10.007812 12.75 -9.9375 L 13.859375 -8.9375 L 13.34375 -7.4375 C 13.164062 -6.894531 13.078125 -6.382812 13.078125 -5.90625 C 13.078125 -5.144531 13.285156 -4.4375 13.703125 -3.78125 C 13.804688 -3.5625 13.941406 -3.390625 14.109375 -3.265625 C 14.285156 -3.148438 14.515625 -3.070312 14.796875 -3.03125 C 15.234375 -2.945312 15.453125 -2.726562 15.453125 -2.375 C 15.453125 -1.925781 15.367188 -1.59375 15.203125 -1.375 C 15.046875 -1.15625 14.859375 -1.015625 14.640625 -0.953125 C 14.316406 -0.921875 14.097656 -0.90625 13.984375 -0.90625 C 13.398438 -0.90625 12.867188 -1.050781 12.390625 -1.34375 C 11.910156 -1.644531 11.488281 -2.15625 11.125 -2.875 C 11.050781 -3 10.945312 -3.21875 10.8125 -3.53125 C 10.6875 -3.851562 10.613281 -4.078125 10.59375 -4.203125 C 10.445312 -4.003906 10.21875 -3.742188 9.90625 -3.421875 C 7.84375 -1.335938 6.171875 -0.296875 4.890625 -0.296875 C 4.453125 -0.296875 4.0625 -0.40625 3.71875 -0.625 Z M 5.375 -3.125 C 5.6875 -3.082031 6.304688 -3.441406 7.234375 -4.203125 C 7.328125 -4.273438 7.429688 -4.367188 7.546875 -4.484375 C 7.671875 -4.597656 7.804688 -4.710938 7.953125 -4.828125 C 8.515625 -5.285156 8.945312 -5.671875 9.25 -5.984375 C 9.5625 -6.296875 9.878906 -6.671875 10.203125 -7.109375 L 10.859375 -8.1875 C 10.660156 -8.625 10.476562 -8.914062 10.3125 -9.0625 C 10.15625 -9.21875 10 -9.296875 9.84375 -9.296875 C 9.4375 -9.296875 8.929688 -8.941406 8.328125 -8.234375 C 7.734375 -7.523438 7.019531 -6.453125 6.1875 -5.015625 C 5.957031 -4.648438 5.773438 -4.269531 5.640625 -3.875 C 5.503906 -3.488281 5.414062 -3.238281 5.375 -3.125 Z M 5.375 -3.125 "/></g></g></g><g fill="#ffffff" fill-opacity="1"><g transform="translate(148.502904, 201.325007)"><g><path d="M 11.21875 0.5625 C 10.957031 0.625 10.707031 0.566406 10.46875 0.390625 C 10.226562 0.210938 10.050781 0.00390625 9.9375 -0.234375 C 9.832031 -0.515625 9.757812 -0.789062 9.71875 -1.0625 C 9.675781 -1.332031 9.644531 -1.695312 9.625 -2.15625 L 9.59375 -3.1875 L 8.375 -2.0625 C 7.113281 -0.882812 5.941406 -0.296875 4.859375 -0.296875 C 4.535156 -0.359375 4.128906 -0.628906 3.640625 -1.109375 C 3.148438 -1.585938 2.835938 -2 2.703125 -2.34375 C 2.617188 -2.5 2.578125 -2.75 2.578125 -3.09375 C 2.578125 -3.851562 2.773438 -4.765625 3.171875 -5.828125 C 3.578125 -6.898438 4.082031 -7.769531 4.6875 -8.4375 C 5.125 -9.09375 5.648438 -9.585938 6.265625 -9.921875 C 6.890625 -10.265625 7.519531 -10.4375 8.15625 -10.4375 C 8.757812 -10.4375 9.289062 -10.304688 9.75 -10.046875 C 10.03125 -9.910156 10.257812 -9.84375 10.4375 -9.84375 C 10.632812 -9.84375 10.765625 -9.972656 10.828125 -10.234375 C 10.847656 -10.328125 10.96875 -10.726562 11.1875 -11.4375 L 11.515625 -12.390625 C 11.960938 -13.710938 12.34375 -14.769531 12.65625 -15.5625 C 12.976562 -16.363281 13.367188 -17.242188 13.828125 -18.203125 C 14.023438 -18.628906 14.234375 -18.941406 14.453125 -19.140625 C 14.679688 -19.335938 14.882812 -19.425781 15.0625 -19.40625 C 15.320312 -19.40625 15.601562 -19.320312 15.90625 -19.15625 C 16.21875 -18.988281 16.425781 -18.773438 16.53125 -18.515625 C 16.59375 -18.367188 16.625 -18.195312 16.625 -18 C 16.625 -17.78125 16.5625 -17.550781 16.4375 -17.3125 C 15.914062 -16.40625 15.273438 -14.929688 14.515625 -12.890625 C 13.753906 -10.859375 13.164062 -9.09375 12.75 -7.59375 C 12.59375 -7.050781 12.476562 -6.300781 12.40625 -5.34375 C 12.332031 -4.382812 12.296875 -3.441406 12.296875 -2.515625 C 12.296875 -1.640625 12.328125 -1.09375 12.390625 -0.875 C 12.429688 -0.75 12.453125 -0.585938 12.453125 -0.390625 C 12.453125 -0.046875 12.335938 0.1875 12.109375 0.3125 C 11.878906 0.445312 11.582031 0.53125 11.21875 0.5625 Z M 6.265625 -3.0625 C 6.722656 -3.238281 7.234375 -3.535156 7.796875 -3.953125 C 8.398438 -4.398438 8.835938 -4.789062 9.109375 -5.125 C 9.378906 -5.46875 9.59375 -5.898438 9.75 -6.421875 C 9.789062 -6.515625 9.8125 -6.65625 9.8125 -6.84375 C 9.8125 -7.195312 9.640625 -7.523438 9.296875 -7.828125 C 9.097656 -7.984375 8.867188 -8.0625 8.609375 -8.0625 C 8.191406 -8.0625 7.753906 -7.84375 7.296875 -7.40625 C 6.773438 -6.925781 6.351562 -6.390625 6.03125 -5.796875 C 5.707031 -5.210938 5.4375 -4.410156 5.21875 -3.390625 C 5.175781 -3.253906 5.195312 -3.140625 5.28125 -3.046875 C 5.363281 -2.953125 5.492188 -2.90625 5.671875 -2.90625 C 5.804688 -2.90625 6.003906 -2.957031 6.265625 -3.0625 Z M 6.265625 -3.0625 "/></g></g></g><g fill="#ffffff" fill-opacity="1"><g transform="translate(160.558224, 201.325007)"><g><path d="M 6.6875 0 C 5.550781 0 4.628906 -0.316406 3.921875 -0.953125 C 3.222656 -1.597656 2.875 -2.507812 2.875 -3.6875 C 2.875 -4.144531 2.90625 -4.65625 2.96875 -5.21875 C 3.007812 -5.695312 3.203125 -6.351562 3.546875 -7.1875 C 3.898438 -8.03125 4.378906 -8.851562 4.984375 -9.65625 C 5.597656 -10.457031 6.316406 -11.050781 7.140625 -11.4375 C 7.515625 -11.613281 7.832031 -11.734375 8.09375 -11.796875 C 8.351562 -11.867188 8.65625 -11.90625 9 -11.90625 C 9.820312 -11.90625 10.488281 -11.753906 11 -11.453125 C 11.507812 -11.160156 11.867188 -10.820312 12.078125 -10.4375 C 12.285156 -10.0625 12.390625 -9.734375 12.390625 -9.453125 L 12.390625 -9.203125 C 12.390625 -8.960938 12.25 -8.523438 11.96875 -7.890625 C 11.6875 -7.253906 11.238281 -6.65625 10.625 -6.09375 C 10.019531 -5.53125 9.238281 -5.21875 8.28125 -5.15625 C 7.800781 -5.15625 7.332031 -5.203125 6.875 -5.296875 C 6.425781 -5.390625 6.144531 -5.4375 6.03125 -5.4375 C 5.726562 -5.4375 5.535156 -5.320312 5.453125 -5.09375 C 5.378906 -4.875 5.34375 -4.503906 5.34375 -3.984375 C 5.40625 -3.429688 5.5625 -3.039062 5.8125 -2.8125 C 6.0625 -2.59375 6.425781 -2.484375 6.90625 -2.484375 C 7.144531 -2.484375 7.421875 -2.554688 7.734375 -2.703125 C 8.054688 -2.859375 8.4375 -3.109375 8.875 -3.453125 C 9.113281 -3.648438 9.300781 -3.785156 9.4375 -3.859375 C 9.582031 -3.941406 9.753906 -3.984375 9.953125 -3.984375 C 10.140625 -3.984375 10.351562 -3.863281 10.59375 -3.625 C 10.832031 -3.382812 10.960938 -3.15625 10.984375 -2.9375 C 10.941406 -2.695312 10.71875 -2.335938 10.3125 -1.859375 C 9.914062 -1.378906 9.394531 -0.945312 8.75 -0.5625 C 8.113281 -0.1875 7.425781 0 6.6875 0 Z M 7.734375 -7.234375 C 8.117188 -7.234375 8.378906 -7.269531 8.515625 -7.34375 C 8.710938 -7.445312 9.015625 -7.703125 9.421875 -8.109375 C 9.835938 -8.523438 10.054688 -8.8125 10.078125 -8.96875 C 10.078125 -9.164062 9.988281 -9.328125 9.8125 -9.453125 C 9.644531 -9.585938 9.414062 -9.675781 9.125 -9.71875 L 8.796875 -9.71875 C 8.535156 -9.71875 8.160156 -9.503906 7.671875 -9.078125 C 7.179688 -8.648438 6.753906 -8.15625 6.390625 -7.59375 C 6.410156 -7.488281 6.5625 -7.398438 6.84375 -7.328125 C 7.125 -7.265625 7.421875 -7.234375 7.734375 -7.234375 Z M 7.734375 -7.234375 "/></g></g></g></svg>