<svg xmlns="http://www.w3.org/2000/svg" xmlns:xlink="http://www.w3.org/1999/xlink" width="500" zoomAndPan="magnify" viewBox="0 0 375 374.999991" height="500" preserveAspectRatio="xMidYMid meet" version="1.0"><defs><g/></defs><g fill="#ffffff" fill-opacity="1"><g transform="translate(136.720234, 194.753612)"><g><path d="M 2.140625 4.734375 C 1.796875 4.921875 1.414062 5.015625 1 5.015625 C 0.59375 5.015625 0.195312 4.925781 -0.1875 4.75 C -0.570312 4.582031 -0.894531 4.359375 -1.15625 4.078125 C -1.25 3.972656 -1.296875 3.78125 -1.296875 3.5 C -1.296875 3.207031 -1.25 2.90625 -1.15625 2.59375 C -1.082031 2.320312 -0.984375 2.1875 -0.859375 2.1875 C -0.796875 2.1875 -0.707031 2.226562 -0.59375 2.3125 C -0.476562 2.394531 -0.375 2.5 -0.28125 2.625 C 0.03125 2.882812 0.328125 3.015625 0.609375 3.015625 C 1.160156 3.015625 1.742188 2.535156 2.359375 1.578125 L 2.96875 0.234375 C 3.832031 -1.671875 4.320312 -2.785156 4.4375 -3.109375 C 4.4375 -3.117188 4.441406 -3.144531 4.453125 -3.1875 C 4.472656 -3.238281 4.503906 -3.296875 4.546875 -3.359375 C 4.566406 -3.421875 4.609375 -3.550781 4.671875 -3.75 C 4.742188 -3.957031 4.800781 -4.171875 4.84375 -4.390625 L 5.828125 -7.140625 C 5.890625 -7.453125 5.976562 -7.789062 6.09375 -8.15625 C 6.207031 -8.519531 6.3125 -8.828125 6.40625 -9.078125 C 6.46875 -9.203125 6.695312 -9.863281 7.09375 -11.0625 L 7.421875 -12.09375 C 7.597656 -12.632812 7.742188 -13.109375 7.859375 -13.515625 C 7.972656 -13.921875 8.015625 -14.148438 7.984375 -14.203125 L 6.6875 -13.96875 C 6.34375 -13.832031 6.054688 -13.765625 5.828125 -13.765625 C 5.585938 -13.765625 5.492188 -13.847656 5.546875 -14.015625 L 5.546875 -14.265625 C 5.484375 -14.203125 5.378906 -14.28125 5.234375 -14.5 C 5.097656 -14.726562 5.039062 -14.914062 5.0625 -15.0625 C 5.0625 -15.1875 5.242188 -15.328125 5.609375 -15.484375 C 5.984375 -15.648438 6.40625 -15.765625 6.875 -15.828125 L 8.03125 -15.96875 C 8.164062 -15.976562 8.472656 -16.007812 8.953125 -16.0625 C 9.035156 -16.125 9.285156 -16.0625 9.703125 -15.875 C 10.117188 -15.695312 10.390625 -15.550781 10.515625 -15.4375 C 10.640625 -15.257812 10.703125 -15.085938 10.703125 -14.921875 C 10.703125 -14.703125 10.632812 -14.394531 10.5 -14 C 10.363281 -13.601562 10.066406 -12.78125 9.609375 -11.53125 L 8.84375 -9.375 C 8.46875 -8.25 8.179688 -7.453125 7.984375 -6.984375 C 7.921875 -6.785156 7.835938 -6.535156 7.734375 -6.234375 C 7.460938 -5.484375 7.265625 -4.882812 7.140625 -4.4375 C 6.960938 -4 6.765625 -3.410156 6.546875 -2.671875 C 6.546875 -2.546875 6.515625 -2.40625 6.453125 -2.25 C 6.390625 -2.09375 6.316406 -1.976562 6.234375 -1.90625 L 5.6875 -0.53125 L 5.46875 0.015625 C 5.4375 0.109375 5.351562 0.316406 5.21875 0.640625 C 5.09375 0.972656 4.976562 1.21875 4.875 1.375 C 4.820312 1.488281 4.734375 1.644531 4.609375 1.84375 C 4.492188 2.050781 4.4375 2.179688 4.4375 2.234375 C 4.4375 2.242188 4.425781 2.265625 4.40625 2.296875 C 4.394531 2.335938 4.363281 2.359375 4.3125 2.359375 C 4.300781 2.378906 4.273438 2.40625 4.234375 2.4375 C 4.191406 2.476562 4.171875 2.53125 4.171875 2.59375 C 4.097656 2.78125 3.800781 3.148438 3.28125 3.703125 C 2.757812 4.253906 2.378906 4.597656 2.140625 4.734375 Z M 2.140625 4.734375 "/></g></g></g><g fill="#ffffff" fill-opacity="1"><g transform="translate(144.029041, 194.753612)"><g><path d="M 3.890625 -0.15625 C 3.710938 -0.15625 3.566406 -0.1875 3.453125 -0.25 C 3.347656 -0.3125 3.195312 -0.429688 3 -0.609375 C 2.6875 -0.929688 2.441406 -1.265625 2.265625 -1.609375 C 2.097656 -1.960938 2.039062 -2.269531 2.09375 -2.53125 C 2.132812 -2.632812 2.148438 -2.738281 2.140625 -2.84375 C 2.140625 -2.957031 2.140625 -3.03125 2.140625 -3.0625 C 2.078125 -3.125 2.046875 -3.164062 2.046875 -3.1875 C 2.046875 -3.207031 2.0625 -3.226562 2.09375 -3.25 C 2.125 -3.28125 2.144531 -3.3125 2.15625 -3.34375 C 2.25 -3.34375 2.28125 -3.425781 2.25 -3.59375 C 2.21875 -3.71875 2.269531 -3.988281 2.40625 -4.40625 C 2.550781 -4.820312 2.734375 -5.207031 2.953125 -5.5625 C 3.117188 -5.84375 3.367188 -6.191406 3.703125 -6.609375 C 4.035156 -7.023438 4.332031 -7.34375 4.59375 -7.5625 C 5.363281 -8.226562 6.0625 -8.628906 6.6875 -8.765625 C 6.988281 -8.847656 7.289062 -8.890625 7.59375 -8.890625 C 8.039062 -8.890625 8.382812 -8.765625 8.625 -8.515625 C 8.96875 -8.378906 9.21875 -8.175781 9.375 -7.90625 C 9.53125 -7.644531 9.628906 -7.300781 9.671875 -6.875 C 9.691406 -6.78125 9.703125 -6.625 9.703125 -6.40625 C 9.703125 -5.257812 9.269531 -4.066406 8.40625 -2.828125 C 8.039062 -2.316406 7.679688 -1.90625 7.328125 -1.59375 C 6.972656 -1.289062 6.539062 -0.984375 6.03125 -0.671875 C 5.75 -0.484375 5.453125 -0.359375 5.140625 -0.296875 C 4.835938 -0.234375 4.421875 -0.1875 3.890625 -0.15625 Z M 6.265625 -3 C 6.554688 -3.257812 6.765625 -3.523438 6.890625 -3.796875 C 7.023438 -4.066406 7.21875 -4.539062 7.46875 -5.21875 C 7.5625 -5.351562 7.609375 -5.632812 7.609375 -6.0625 C 7.609375 -6.425781 7.554688 -6.632812 7.453125 -6.6875 C 7.367188 -6.75 7.273438 -6.78125 7.171875 -6.78125 C 7.035156 -6.78125 6.8125 -6.671875 6.5 -6.453125 C 5.957031 -5.984375 5.503906 -5.5 5.140625 -5 C 4.773438 -4.5 4.523438 -3.921875 4.390625 -3.265625 C 4.367188 -3.203125 4.359375 -3.113281 4.359375 -3 C 4.359375 -2.46875 4.546875 -2.203125 4.921875 -2.203125 C 5.273438 -2.203125 5.722656 -2.46875 6.265625 -3 Z M 6.265625 -3 "/></g></g></g><g fill="#ffffff" fill-opacity="1"><g transform="translate(152.428369, 194.753612)"><g><path d="M 3.203125 -0.875 C 2.921875 -0.925781 2.664062 -1.082031 2.4375 -1.34375 C 2.207031 -1.601562 2.09375 -1.90625 2.09375 -2.25 C 2.09375 -2.625 2.320312 -3.578125 2.78125 -5.109375 C 2.863281 -5.503906 3.035156 -6.019531 3.296875 -6.65625 C 3.390625 -6.914062 3.441406 -7.070312 3.453125 -7.125 C 3.734375 -8.050781 4.113281 -9.1875 4.59375 -10.53125 L 4.796875 -11.09375 C 5.335938 -12.5625 5.664062 -13.457031 5.78125 -13.78125 L 6.15625 -14.796875 C 6.15625 -14.921875 6.242188 -15.039062 6.421875 -15.15625 C 6.597656 -15.28125 6.75 -15.34375 6.875 -15.34375 C 7.113281 -15.34375 7.347656 -15.175781 7.578125 -14.84375 C 7.816406 -14.519531 7.941406 -14.179688 7.953125 -13.828125 C 7.953125 -13.640625 7.914062 -13.46875 7.84375 -13.3125 C 7.488281 -12.539062 7.046875 -11.34375 6.515625 -9.71875 C 6.285156 -9.039062 6.050781 -8.394531 5.8125 -7.78125 C 5.582031 -7.175781 5.398438 -6.738281 5.265625 -6.46875 L 5.015625 -5.96875 L 4.6875 -4.734375 C 4.6875 -4.679688 4.675781 -4.640625 4.65625 -4.609375 C 4.644531 -4.585938 4.640625 -4.566406 4.640625 -4.546875 C 4.640625 -4.503906 4.644531 -4.484375 4.65625 -4.484375 L 5.0625 -4.875 C 5.507812 -5.320312 6.039062 -5.773438 6.65625 -6.234375 C 7.164062 -6.597656 7.425781 -6.800781 7.4375 -6.84375 C 7.457031 -6.894531 7.523438 -6.960938 7.640625 -7.046875 L 7.859375 -7.234375 C 8.359375 -7.585938 8.894531 -7.765625 9.46875 -7.765625 C 9.632812 -7.765625 9.832031 -7.679688 10.0625 -7.515625 C 10.300781 -7.347656 10.5 -7.113281 10.65625 -6.8125 C 10.820312 -6.507812 10.90625 -6.1875 10.90625 -5.84375 L 10.90625 -5.5 C 10.90625 -5.113281 10.832031 -4.609375 10.6875 -3.984375 C 10.539062 -3.359375 10.457031 -3 10.4375 -2.90625 C 10.519531 -2.90625 10.640625 -2.921875 10.796875 -2.953125 C 11.023438 -2.953125 11.1875 -2.925781 11.28125 -2.875 C 11.382812 -2.832031 11.472656 -2.769531 11.546875 -2.6875 C 11.628906 -2.613281 11.703125 -2.566406 11.765625 -2.546875 C 11.796875 -2.515625 11.8125 -2.46875 11.8125 -2.40625 C 11.8125 -2.050781 11.617188 -1.742188 11.234375 -1.484375 C 10.847656 -1.222656 10.472656 -1.078125 10.109375 -1.046875 C 9.679688 -1.046875 9.332031 -1.207031 9.0625 -1.53125 C 8.800781 -1.851562 8.671875 -2.25 8.671875 -2.71875 C 8.671875 -2.90625 8.675781 -3.085938 8.6875 -3.265625 C 8.707031 -3.453125 8.726562 -3.617188 8.75 -3.765625 C 8.789062 -4.066406 8.8125 -4.3125 8.8125 -4.5 C 8.8125 -4.695312 8.789062 -4.832031 8.75 -4.90625 C 8.71875 -4.976562 8.65625 -5.015625 8.5625 -5.015625 C 8.25 -5.015625 7.707031 -4.726562 6.9375 -4.15625 C 6.175781 -3.59375 5.40625 -2.863281 4.625 -1.96875 C 4.125 -1.238281 3.648438 -0.875 3.203125 -0.875 Z M 3.203125 -0.875 "/></g></g></g><g fill="#ffffff" fill-opacity="1"><g transform="translate(163.403184, 194.753612)"><g><path d="M 10.25 -0.5625 C 9.28125 -0.59375 8.796875 -1.140625 8.796875 -2.203125 C 8.796875 -2.492188 8.816406 -2.78125 8.859375 -3.0625 C 8.890625 -3.40625 8.90625 -3.644531 8.90625 -3.78125 L 8.90625 -4.15625 C 8.863281 -4.46875 8.765625 -4.625 8.609375 -4.625 C 8.328125 -4.625 7.8125 -4.351562 7.0625 -3.8125 C 6.3125 -3.28125 5.523438 -2.644531 4.703125 -1.90625 C 4.460938 -1.644531 4.253906 -1.394531 4.078125 -1.15625 C 3.929688 -0.957031 3.816406 -0.832031 3.734375 -0.78125 C 3.660156 -0.738281 3.535156 -0.71875 3.359375 -0.71875 C 3.148438 -0.75 2.90625 -0.910156 2.625 -1.203125 C 2.34375 -1.492188 2.15625 -1.757812 2.0625 -2 C 2.0625 -2.425781 2.140625 -2.835938 2.296875 -3.234375 C 2.453125 -3.628906 2.6875 -4.128906 3 -4.734375 C 3.132812 -5.191406 3.3125 -5.65625 3.53125 -6.125 C 3.757812 -6.664062 3.921875 -7.078125 4.015625 -7.359375 C 4.117188 -7.648438 4.1875 -7.953125 4.21875 -8.265625 C 4.21875 -8.273438 4.210938 -8.28125 4.203125 -8.28125 C 4.203125 -8.34375 4.222656 -8.394531 4.265625 -8.4375 C 4.316406 -8.488281 4.375 -8.515625 4.4375 -8.515625 C 4.46875 -8.554688 4.554688 -8.578125 4.703125 -8.578125 C 5.109375 -8.578125 5.457031 -8.46875 5.75 -8.25 C 6.039062 -8.039062 6.1875 -7.710938 6.1875 -7.265625 C 6.1875 -7.035156 6.144531 -6.8125 6.0625 -6.59375 C 5.976562 -6.382812 5.820312 -6.039062 5.59375 -5.5625 L 5.34375 -5.0625 C 5.289062 -4.96875 5.21875 -4.832031 5.125 -4.65625 C 5.03125 -4.476562 4.984375 -4.363281 4.984375 -4.3125 C 5.367188 -4.570312 5.828125 -4.921875 6.359375 -5.359375 C 7.128906 -5.972656 7.757812 -6.453125 8.25 -6.796875 C 8.75 -7.140625 9.113281 -7.3125 9.34375 -7.3125 C 9.550781 -7.3125 9.835938 -7.195312 10.203125 -6.96875 C 10.566406 -6.75 10.773438 -6.546875 10.828125 -6.359375 C 10.828125 -6.242188 10.816406 -6.078125 10.796875 -5.859375 C 10.773438 -5.648438 10.757812 -5.460938 10.75 -5.296875 L 10.765625 -4.578125 C 10.785156 -4.453125 10.796875 -4.265625 10.796875 -4.015625 C 10.796875 -3.515625 10.765625 -3.164062 10.703125 -2.96875 C 10.710938 -2.957031 10.722656 -2.9375 10.734375 -2.90625 C 10.753906 -2.875 10.765625 -2.847656 10.765625 -2.828125 L 10.75 -2.78125 C 10.757812 -2.625 10.84375 -2.375 11 -2.03125 C 11.15625 -1.695312 11.234375 -1.515625 11.234375 -1.484375 C 11.234375 -1.316406 11.117188 -1.128906 10.890625 -0.921875 C 10.671875 -0.710938 10.457031 -0.59375 10.25 -0.5625 Z M 10.25 -0.5625 "/></g></g></g><g fill="#ffffff" fill-opacity="1"><g transform="translate(174.053162, 194.753612)"><g><path d="M 10.25 -0.5625 C 9.28125 -0.59375 8.796875 -1.140625 8.796875 -2.203125 C 8.796875 -2.492188 8.816406 -2.78125 8.859375 -3.0625 C 8.890625 -3.40625 8.90625 -3.644531 8.90625 -3.78125 L 8.90625 -4.15625 C 8.863281 -4.46875 8.765625 -4.625 8.609375 -4.625 C 8.328125 -4.625 7.8125 -4.351562 7.0625 -3.8125 C 6.3125 -3.28125 5.523438 -2.644531 4.703125 -1.90625 C 4.460938 -1.644531 4.253906 -1.394531 4.078125 -1.15625 C 3.929688 -0.957031 3.816406 -0.832031 3.734375 -0.78125 C 3.660156 -0.738281 3.535156 -0.71875 3.359375 -0.71875 C 3.148438 -0.75 2.90625 -0.910156 2.625 -1.203125 C 2.34375 -1.492188 2.15625 -1.757812 2.0625 -2 C 2.0625 -2.425781 2.140625 -2.835938 2.296875 -3.234375 C 2.453125 -3.628906 2.6875 -4.128906 3 -4.734375 C 3.132812 -5.191406 3.3125 -5.65625 3.53125 -6.125 C 3.757812 -6.664062 3.921875 -7.078125 4.015625 -7.359375 C 4.117188 -7.648438 4.1875 -7.953125 4.21875 -8.265625 C 4.21875 -8.273438 4.210938 -8.28125 4.203125 -8.28125 C 4.203125 -8.34375 4.222656 -8.394531 4.265625 -8.4375 C 4.316406 -8.488281 4.375 -8.515625 4.4375 -8.515625 C 4.46875 -8.554688 4.554688 -8.578125 4.703125 -8.578125 C 5.109375 -8.578125 5.457031 -8.46875 5.75 -8.25 C 6.039062 -8.039062 6.1875 -7.710938 6.1875 -7.265625 C 6.1875 -7.035156 6.144531 -6.8125 6.0625 -6.59375 C 5.976562 -6.382812 5.820312 -6.039062 5.59375 -5.5625 L 5.34375 -5.0625 C 5.289062 -4.96875 5.21875 -4.832031 5.125 -4.65625 C 5.03125 -4.476562 4.984375 -4.363281 4.984375 -4.3125 C 5.367188 -4.570312 5.828125 -4.921875 6.359375 -5.359375 C 7.128906 -5.972656 7.757812 -6.453125 8.25 -6.796875 C 8.75 -7.140625 9.113281 -7.3125 9.34375 -7.3125 C 9.550781 -7.3125 9.835938 -7.195312 10.203125 -6.96875 C 10.566406 -6.75 10.773438 -6.546875 10.828125 -6.359375 C 10.828125 -6.242188 10.816406 -6.078125 10.796875 -5.859375 C 10.773438 -5.648438 10.757812 -5.460938 10.75 -5.296875 L 10.765625 -4.578125 C 10.785156 -4.453125 10.796875 -4.265625 10.796875 -4.015625 C 10.796875 -3.515625 10.765625 -3.164062 10.703125 -2.96875 C 10.710938 -2.957031 10.722656 -2.9375 10.734375 -2.90625 C 10.753906 -2.875 10.765625 -2.847656 10.765625 -2.828125 L 10.75 -2.78125 C 10.757812 -2.625 10.84375 -2.375 11 -2.03125 C 11.15625 -1.695312 11.234375 -1.515625 11.234375 -1.484375 C 11.234375 -1.316406 11.117188 -1.128906 10.890625 -0.921875 C 10.671875 -0.710938 10.457031 -0.59375 10.25 -0.5625 Z M 10.25 -0.5625 "/></g></g></g><g fill="#ffffff" fill-opacity="1"><g transform="translate(184.703139, 194.753612)"><g><path d="M 9.21875 -8.5625 C 9.414062 -8.34375 9.5625 -8.160156 9.65625 -8.015625 C 9.75 -7.867188 9.796875 -7.695312 9.796875 -7.5 C 9.796875 -7.164062 9.671875 -6.773438 9.421875 -6.328125 C 9.296875 -5.972656 9.160156 -5.640625 9.015625 -5.328125 C 8.867188 -5.023438 8.753906 -4.828125 8.671875 -4.734375 L 8.140625 -3.5 C 7.910156 -2.988281 7.625 -2.394531 7.28125 -1.71875 C 6.863281 -0.851562 6.570312 -0.210938 6.40625 0.203125 L 6.109375 0.703125 C 5.328125 1.929688 4.726562 2.796875 4.3125 3.296875 C 3.976562 3.609375 3.578125 3.925781 3.109375 4.25 C 2.640625 4.582031 2.269531 4.773438 2 4.828125 C 1.695312 4.890625 1.367188 4.921875 1.015625 4.921875 C 0.378906 4.921875 -0.179688 4.8125 -0.671875 4.59375 C -1.171875 4.375 -1.457031 4.113281 -1.53125 3.8125 L -1.578125 3.53125 C -1.578125 3.257812 -1.472656 3.050781 -1.265625 2.90625 C -1.054688 2.757812 -0.828125 2.6875 -0.578125 2.6875 C -0.421875 2.6875 -0.304688 2.726562 -0.234375 2.8125 C -0.203125 2.820312 -0.078125 2.90625 0.140625 3.0625 C 0.359375 3.21875 0.648438 3.296875 1.015625 3.296875 C 1.710938 3.296875 2.394531 2.835938 3.0625 1.921875 C 3.707031 0.890625 4.203125 0.0625 4.546875 -0.5625 C 4.234375 -0.738281 3.929688 -1.046875 3.640625 -1.484375 C 3.347656 -1.929688 3.21875 -2.238281 3.25 -2.40625 L 3.25 -2.671875 C 3.125 -2.671875 3.035156 -2.898438 2.984375 -3.359375 C 2.929688 -3.828125 2.90625 -4.398438 2.90625 -5.078125 C 2.90625 -5.816406 2.921875 -6.335938 2.953125 -6.640625 C 3.015625 -6.878906 3.046875 -7.179688 3.046875 -7.546875 C 3.054688 -7.910156 3.0625 -8.148438 3.0625 -8.265625 C 3.050781 -8.472656 3.09375 -8.660156 3.1875 -8.828125 C 3.289062 -8.992188 3.390625 -9.109375 3.484375 -9.171875 C 3.679688 -9.242188 3.84375 -9.28125 3.96875 -9.28125 C 4.675781 -9.28125 5.03125 -8.519531 5.03125 -7 C 5.03125 -6.707031 5.023438 -6.484375 5.015625 -6.328125 C 4.984375 -5.585938 4.96875 -5.0625 4.96875 -4.75 C 4.96875 -3.5625 5.128906 -2.789062 5.453125 -2.4375 C 5.585938 -2.757812 5.703125 -2.988281 5.796875 -3.125 C 6.015625 -3.582031 6.140625 -3.867188 6.171875 -3.984375 C 6.203125 -4.097656 6.285156 -4.28125 6.421875 -4.53125 L 6.734375 -5.15625 C 6.765625 -5.25 6.863281 -5.546875 7.03125 -6.046875 C 7.195312 -6.546875 7.367188 -6.953125 7.546875 -7.265625 C 7.609375 -7.390625 7.695312 -7.570312 7.8125 -7.8125 C 7.9375 -8.050781 8.035156 -8.222656 8.109375 -8.328125 C 8.191406 -8.441406 8.28125 -8.507812 8.375 -8.53125 C 8.5 -8.644531 8.628906 -8.703125 8.765625 -8.703125 C 8.910156 -8.703125 9.0625 -8.65625 9.21875 -8.5625 Z M 9.21875 -8.5625 "/></g></g></g><g fill="#ffffff" fill-opacity="1"><g transform="translate(192.615213, 194.753612)"><g/></g></g><g fill="#ffffff" fill-opacity="1"><g transform="translate(198.230231, 194.753612)"><g><path d="M 1.421875 0.765625 C 1.242188 0.671875 1.117188 0.582031 1.046875 0.5 C 0.984375 0.425781 0.953125 0.328125 0.953125 0.203125 C 0.953125 0.0546875 1.015625 -0.15625 1.140625 -0.4375 C 1.273438 -0.726562 1.503906 -1.1875 1.828125 -1.8125 C 1.921875 -2.007812 2.097656 -2.363281 2.359375 -2.875 C 3.023438 -4.144531 3.359375 -5.082031 3.359375 -5.6875 C 3.347656 -5.71875 3.34375 -5.765625 3.34375 -5.828125 C 3.34375 -5.984375 3.46875 -6.117188 3.71875 -6.234375 C 3.757812 -6.285156 3.921875 -6.421875 4.203125 -6.640625 C 4.492188 -6.859375 4.722656 -7.101562 4.890625 -7.375 C 5.097656 -7.84375 5.351562 -8.359375 5.65625 -8.921875 C 5.96875 -9.484375 6.503906 -10.40625 7.265625 -11.6875 C 8.003906 -13.050781 8.789062 -14.285156 9.625 -15.390625 C 9.78125 -15.597656 9.953125 -15.765625 10.140625 -15.890625 C 10.335938 -16.015625 10.507812 -16.078125 10.65625 -16.078125 C 11.132812 -16.078125 11.625 -15.890625 12.125 -15.515625 C 12.625 -15.148438 12.953125 -14.78125 13.109375 -14.40625 C 13.171875 -14.300781 13.203125 -14.070312 13.203125 -13.71875 C 13.203125 -13.238281 13.148438 -12.425781 13.046875 -11.28125 C 13.015625 -11.070312 12.984375 -10.753906 12.953125 -10.328125 C 12.898438 -9.628906 12.828125 -8.882812 12.734375 -8.09375 C 12.566406 -6.363281 12.441406 -5.007812 12.359375 -4.03125 C 12.285156 -3.0625 12.25 -2.148438 12.25 -1.296875 C 12.25 -0.867188 12.257812 -0.550781 12.28125 -0.34375 L 12.28125 -0.1875 L 12.25 0.34375 C 12.15625 0.4375 11.96875 0.484375 11.6875 0.484375 C 11.382812 0.484375 11.078125 0.429688 10.765625 0.328125 C 10.453125 0.234375 10.28125 0.117188 10.25 -0.015625 C 10.238281 -0.0351562 10.21875 -0.0507812 10.1875 -0.0625 C 10.15625 -0.0820312 10.140625 -0.15625 10.140625 -0.28125 L 10.15625 -0.78125 L 10.234375 -2.09375 L 10.34375 -5.640625 L 10.046875 -5.609375 C 9.734375 -5.609375 9.078125 -5.546875 8.078125 -5.421875 C 7.085938 -5.304688 6.457031 -5.207031 6.1875 -5.125 C 6.050781 -5.125 5.882812 -5.03125 5.6875 -4.84375 C 5.488281 -4.664062 5.3125 -4.425781 5.15625 -4.125 C 5.101562 -3.96875 4.992188 -3.75 4.828125 -3.46875 C 4.660156 -3.1875 4.578125 -3.019531 4.578125 -2.96875 C 4.484375 -2.90625 4.398438 -2.820312 4.328125 -2.71875 C 4.253906 -2.625 4.210938 -2.5625 4.203125 -2.53125 C 4.203125 -2.363281 4.050781 -1.925781 3.75 -1.21875 C 3.445312 -0.507812 3.148438 0.0664062 2.859375 0.515625 L 2.234375 1.390625 Z M 6.96875 -7.21875 C 7.070312 -7.226562 7.285156 -7.257812 7.609375 -7.3125 C 7.929688 -7.375 8.21875 -7.410156 8.46875 -7.421875 C 9.207031 -7.609375 9.71875 -7.703125 10 -7.703125 C 10.15625 -7.703125 10.265625 -7.6875 10.328125 -7.65625 C 10.367188 -7.59375 10.414062 -7.550781 10.46875 -7.53125 C 10.53125 -7.507812 10.566406 -7.5 10.578125 -7.5 C 10.609375 -7.625 10.734375 -8.46875 10.953125 -10.03125 C 11.171875 -11.59375 11.28125 -12.550781 11.28125 -12.90625 C 11.28125 -13.144531 11.269531 -13.351562 11.25 -13.53125 C 11.238281 -13.71875 11.222656 -13.832031 11.203125 -13.875 C 11.066406 -13.875 10.75 -13.503906 10.25 -12.765625 C 9.757812 -12.035156 9.28125 -11.207031 8.8125 -10.28125 C 8.457031 -9.644531 8.210938 -9.328125 8.078125 -9.328125 C 7.960938 -9.222656 7.726562 -8.859375 7.375 -8.234375 C 7.019531 -7.617188 6.882812 -7.28125 6.96875 -7.21875 Z M 6.96875 -7.21875 "/></g></g></g><g fill="#ffffff" fill-opacity="1"><g transform="translate(210.086742, 194.753612)"><g><path d="M 3.765625 -1.203125 C 3.429688 -1.097656 3.179688 -1.046875 3.015625 -1.046875 C 2.753906 -1.046875 2.492188 -1.144531 2.234375 -1.34375 C 1.992188 -1.570312 1.875 -1.804688 1.875 -2.046875 C 1.875 -2.429688 2.160156 -2.820312 2.734375 -3.21875 C 3.046875 -3.425781 3.285156 -3.53125 3.453125 -3.53125 C 3.578125 -3.53125 3.785156 -3.46875 4.078125 -3.34375 C 4.546875 -3.03125 4.78125 -2.710938 4.78125 -2.390625 C 4.78125 -1.953125 4.441406 -1.554688 3.765625 -1.203125 Z M 3.765625 -1.203125 "/></g></g></g></svg>