<svg xmlns="http://www.w3.org/2000/svg" xmlns:xlink="http://www.w3.org/1999/xlink" width="500" zoomAndPan="magnify" viewBox="0 0 375 374.999991" height="500" preserveAspectRatio="xMidYMid meet" version="1.0"><defs><g/></defs><g fill="#ffffff" fill-opacity="1"><g transform="translate(107.796835, 202.559433)"><g><path d="M 2.484375 5.515625 C 2.085938 5.734375 1.644531 5.84375 1.15625 5.84375 C 0.6875 5.84375 0.226562 5.742188 -0.21875 5.546875 C -0.664062 5.347656 -1.039062 5.082031 -1.34375 4.75 C -1.457031 4.625 -1.515625 4.398438 -1.515625 4.078125 C -1.515625 3.734375 -1.457031 3.382812 -1.34375 3.03125 C -1.257812 2.707031 -1.144531 2.546875 -1 2.546875 C -0.925781 2.546875 -0.820312 2.59375 -0.6875 2.6875 C -0.550781 2.789062 -0.429688 2.910156 -0.328125 3.046875 C 0.0351562 3.359375 0.378906 3.515625 0.703125 3.515625 C 1.347656 3.515625 2.03125 2.957031 2.75 1.84375 L 3.453125 0.265625 C 4.460938 -1.941406 5.03125 -3.238281 5.15625 -3.625 C 5.15625 -3.644531 5.164062 -3.679688 5.1875 -3.734375 C 5.207031 -3.785156 5.242188 -3.847656 5.296875 -3.921875 C 5.316406 -3.992188 5.363281 -4.144531 5.4375 -4.375 C 5.519531 -4.613281 5.59375 -4.859375 5.65625 -5.109375 L 6.78125 -8.328125 C 6.851562 -8.679688 6.957031 -9.070312 7.09375 -9.5 C 7.226562 -9.925781 7.347656 -10.28125 7.453125 -10.5625 C 7.523438 -10.707031 7.796875 -11.484375 8.265625 -12.890625 L 8.65625 -14.078125 C 8.851562 -14.710938 9.019531 -15.269531 9.15625 -15.75 C 9.289062 -16.226562 9.335938 -16.492188 9.296875 -16.546875 L 7.78125 -16.265625 C 7.382812 -16.109375 7.050781 -16.03125 6.78125 -16.03125 C 6.507812 -16.03125 6.398438 -16.128906 6.453125 -16.328125 L 6.453125 -16.625 C 6.390625 -16.550781 6.273438 -16.644531 6.109375 -16.90625 C 5.941406 -17.164062 5.867188 -17.378906 5.890625 -17.546875 C 5.890625 -17.691406 6.101562 -17.859375 6.53125 -18.046875 C 6.96875 -18.234375 7.457031 -18.363281 8 -18.4375 L 9.359375 -18.59375 C 9.515625 -18.613281 9.875 -18.648438 10.4375 -18.703125 C 10.519531 -18.773438 10.804688 -18.707031 11.296875 -18.5 C 11.785156 -18.289062 12.101562 -18.113281 12.25 -17.96875 C 12.394531 -17.769531 12.46875 -17.570312 12.46875 -17.375 C 12.46875 -17.125 12.390625 -16.769531 12.234375 -16.3125 C 12.078125 -15.851562 11.726562 -14.894531 11.1875 -13.4375 L 10.296875 -10.921875 C 9.867188 -9.609375 9.535156 -8.679688 9.296875 -8.140625 C 9.222656 -7.898438 9.125 -7.609375 9 -7.265625 C 8.695312 -6.390625 8.472656 -5.6875 8.328125 -5.15625 C 8.109375 -4.65625 7.875 -3.972656 7.625 -3.109375 C 7.625 -2.960938 7.585938 -2.800781 7.515625 -2.625 C 7.441406 -2.445312 7.359375 -2.3125 7.265625 -2.21875 L 6.625 -0.625 L 6.375 0.03125 C 6.34375 0.132812 6.25 0.375 6.09375 0.75 C 5.9375 1.132812 5.796875 1.414062 5.671875 1.59375 C 5.617188 1.738281 5.519531 1.925781 5.375 2.15625 C 5.226562 2.394531 5.15625 2.539062 5.15625 2.59375 C 5.15625 2.613281 5.144531 2.644531 5.125 2.6875 C 5.113281 2.726562 5.082031 2.75 5.03125 2.75 C 5.007812 2.769531 4.972656 2.800781 4.921875 2.84375 C 4.878906 2.894531 4.859375 2.957031 4.859375 3.03125 C 4.773438 3.25 4.429688 3.675781 3.828125 4.3125 C 3.222656 4.945312 2.773438 5.347656 2.484375 5.515625 Z M 2.484375 5.515625 "/></g></g></g><g fill="#ffffff" fill-opacity="1"><g transform="translate(116.312905, 202.559433)"><g><path d="M 4.546875 -0.1875 C 4.328125 -0.1875 4.15625 -0.222656 4.03125 -0.296875 C 3.90625 -0.367188 3.722656 -0.503906 3.484375 -0.703125 C 3.128906 -1.078125 2.851562 -1.46875 2.65625 -1.875 C 2.457031 -2.28125 2.382812 -2.640625 2.4375 -2.953125 C 2.488281 -3.078125 2.507812 -3.203125 2.5 -3.328125 C 2.488281 -3.453125 2.484375 -3.53125 2.484375 -3.5625 C 2.410156 -3.632812 2.375 -3.679688 2.375 -3.703125 C 2.375 -3.734375 2.390625 -3.765625 2.421875 -3.796875 C 2.460938 -3.828125 2.492188 -3.859375 2.515625 -3.890625 C 2.617188 -3.890625 2.65625 -3.988281 2.625 -4.1875 C 2.582031 -4.332031 2.640625 -4.644531 2.796875 -5.125 C 2.960938 -5.613281 3.175781 -6.066406 3.4375 -6.484375 C 3.632812 -6.804688 3.925781 -7.210938 4.3125 -7.703125 C 4.695312 -8.191406 5.046875 -8.5625 5.359375 -8.8125 C 6.253906 -9.582031 7.0625 -10.050781 7.78125 -10.21875 C 8.144531 -10.3125 8.5 -10.359375 8.84375 -10.359375 C 9.363281 -10.359375 9.769531 -10.210938 10.0625 -9.921875 C 10.457031 -9.753906 10.742188 -9.519531 10.921875 -9.21875 C 11.097656 -8.914062 11.210938 -8.507812 11.265625 -8 C 11.285156 -7.894531 11.296875 -7.710938 11.296875 -7.453125 C 11.296875 -6.117188 10.789062 -4.734375 9.78125 -3.296875 C 9.363281 -2.703125 8.945312 -2.222656 8.53125 -1.859375 C 8.125 -1.503906 7.625 -1.144531 7.03125 -0.78125 C 6.707031 -0.5625 6.363281 -0.414062 6 -0.34375 C 5.632812 -0.28125 5.148438 -0.226562 4.546875 -0.1875 Z M 7.296875 -3.484375 C 7.640625 -3.796875 7.882812 -4.109375 8.03125 -4.421875 C 8.1875 -4.734375 8.410156 -5.285156 8.703125 -6.078125 C 8.804688 -6.242188 8.859375 -6.570312 8.859375 -7.0625 C 8.859375 -7.488281 8.796875 -7.726562 8.671875 -7.78125 C 8.585938 -7.851562 8.484375 -7.890625 8.359375 -7.890625 C 8.191406 -7.890625 7.925781 -7.765625 7.5625 -7.515625 C 6.9375 -6.972656 6.410156 -6.410156 5.984375 -5.828125 C 5.566406 -5.242188 5.273438 -4.570312 5.109375 -3.8125 C 5.085938 -3.738281 5.078125 -3.628906 5.078125 -3.484375 C 5.078125 -2.867188 5.296875 -2.5625 5.734375 -2.5625 C 6.148438 -2.5625 6.671875 -2.867188 7.296875 -3.484375 Z M 7.296875 -3.484375 "/></g></g></g><g fill="#ffffff" fill-opacity="1"><g transform="translate(126.099629, 202.559433)"><g><path d="M 3.734375 -1.03125 C 3.410156 -1.082031 3.113281 -1.257812 2.84375 -1.5625 C 2.570312 -1.875 2.4375 -2.226562 2.4375 -2.625 C 2.4375 -3.050781 2.707031 -4.160156 3.25 -5.953125 C 3.332031 -6.421875 3.53125 -7.023438 3.84375 -7.765625 C 3.945312 -8.066406 4.007812 -8.242188 4.03125 -8.296875 C 4.351562 -9.378906 4.796875 -10.703125 5.359375 -12.265625 L 5.59375 -12.921875 C 6.226562 -14.628906 6.609375 -15.675781 6.734375 -16.0625 L 7.15625 -17.25 C 7.15625 -17.394531 7.257812 -17.535156 7.46875 -17.671875 C 7.675781 -17.804688 7.851562 -17.875 8 -17.875 C 8.289062 -17.875 8.570312 -17.679688 8.84375 -17.296875 C 9.113281 -16.921875 9.253906 -16.523438 9.265625 -16.109375 C 9.265625 -15.890625 9.222656 -15.691406 9.140625 -15.515625 C 8.722656 -14.617188 8.207031 -13.222656 7.59375 -11.328125 C 7.320312 -10.535156 7.050781 -9.78125 6.78125 -9.0625 C 6.507812 -8.351562 6.296875 -7.847656 6.140625 -7.546875 L 5.84375 -6.953125 L 5.453125 -5.515625 C 5.453125 -5.460938 5.441406 -5.414062 5.421875 -5.375 C 5.410156 -5.34375 5.40625 -5.316406 5.40625 -5.296875 C 5.40625 -5.242188 5.414062 -5.21875 5.4375 -5.21875 L 5.890625 -5.671875 C 6.410156 -6.191406 7.035156 -6.722656 7.765625 -7.265625 C 8.359375 -7.679688 8.660156 -7.914062 8.671875 -7.96875 C 8.691406 -8.03125 8.765625 -8.113281 8.890625 -8.21875 L 9.15625 -8.4375 C 9.738281 -8.851562 10.363281 -9.0625 11.03125 -9.0625 C 11.226562 -9.0625 11.460938 -8.957031 11.734375 -8.75 C 12.003906 -8.550781 12.234375 -8.273438 12.421875 -7.921875 C 12.609375 -7.578125 12.703125 -7.207031 12.703125 -6.8125 L 12.703125 -6.40625 C 12.703125 -5.957031 12.613281 -5.367188 12.4375 -4.640625 C 12.269531 -3.910156 12.175781 -3.488281 12.15625 -3.375 C 12.25 -3.375 12.382812 -3.394531 12.5625 -3.4375 C 12.832031 -3.4375 13.023438 -3.40625 13.140625 -3.34375 C 13.265625 -3.289062 13.367188 -3.21875 13.453125 -3.125 C 13.546875 -3.039062 13.628906 -2.988281 13.703125 -2.96875 C 13.742188 -2.9375 13.765625 -2.882812 13.765625 -2.8125 C 13.765625 -2.394531 13.535156 -2.03125 13.078125 -1.71875 C 12.628906 -1.414062 12.195312 -1.25 11.78125 -1.21875 C 11.28125 -1.21875 10.875 -1.40625 10.5625 -1.78125 C 10.257812 -2.164062 10.109375 -2.625 10.109375 -3.15625 C 10.109375 -3.375 10.113281 -3.59375 10.125 -3.8125 C 10.144531 -4.03125 10.164062 -4.21875 10.1875 -4.375 C 10.238281 -4.738281 10.265625 -5.03125 10.265625 -5.25 C 10.265625 -5.476562 10.242188 -5.632812 10.203125 -5.71875 C 10.160156 -5.800781 10.082031 -5.84375 9.96875 -5.84375 C 9.613281 -5.84375 8.988281 -5.507812 8.09375 -4.84375 C 7.195312 -4.1875 6.289062 -3.335938 5.375 -2.296875 C 4.800781 -1.453125 4.253906 -1.03125 3.734375 -1.03125 Z M 3.734375 -1.03125 "/></g></g></g><g fill="#ffffff" fill-opacity="1"><g transform="translate(138.887255, 202.559433)"><g><path d="M 11.953125 -0.65625 C 10.816406 -0.6875 10.25 -1.320312 10.25 -2.5625 C 10.25 -2.90625 10.273438 -3.238281 10.328125 -3.5625 C 10.359375 -3.957031 10.375 -4.238281 10.375 -4.40625 L 10.375 -4.84375 C 10.320312 -5.195312 10.207031 -5.375 10.03125 -5.375 C 9.707031 -5.375 9.109375 -5.0625 8.234375 -4.4375 C 7.359375 -3.820312 6.441406 -3.082031 5.484375 -2.21875 C 5.203125 -1.90625 4.957031 -1.613281 4.75 -1.34375 C 4.570312 -1.113281 4.4375 -0.972656 4.34375 -0.921875 C 4.257812 -0.867188 4.117188 -0.84375 3.921875 -0.84375 C 3.671875 -0.875 3.378906 -1.0625 3.046875 -1.40625 C 2.722656 -1.75 2.507812 -2.054688 2.40625 -2.328125 C 2.40625 -2.828125 2.492188 -3.304688 2.671875 -3.765625 C 2.859375 -4.222656 3.128906 -4.804688 3.484375 -5.515625 C 3.648438 -6.054688 3.859375 -6.597656 4.109375 -7.140625 C 4.378906 -7.765625 4.570312 -8.242188 4.6875 -8.578125 C 4.800781 -8.910156 4.878906 -9.257812 4.921875 -9.625 C 4.921875 -9.644531 4.914062 -9.65625 4.90625 -9.65625 C 4.894531 -9.65625 4.890625 -9.65625 4.890625 -9.65625 C 4.890625 -9.726562 4.914062 -9.789062 4.96875 -9.84375 C 5.03125 -9.894531 5.09375 -9.921875 5.15625 -9.921875 C 5.195312 -9.972656 5.304688 -10 5.484375 -10 C 5.953125 -10 6.359375 -9.875 6.703125 -9.625 C 7.046875 -9.375 7.21875 -8.984375 7.21875 -8.453125 C 7.21875 -8.191406 7.164062 -7.9375 7.0625 -7.6875 C 6.96875 -7.445312 6.785156 -7.046875 6.515625 -6.484375 L 6.21875 -5.890625 C 6.164062 -5.785156 6.082031 -5.628906 5.96875 -5.421875 C 5.863281 -5.210938 5.8125 -5.082031 5.8125 -5.03125 C 6.257812 -5.332031 6.789062 -5.738281 7.40625 -6.25 C 8.3125 -6.96875 9.050781 -7.523438 9.625 -7.921875 C 10.195312 -8.316406 10.617188 -8.515625 10.890625 -8.515625 C 11.128906 -8.515625 11.457031 -8.382812 11.875 -8.125 C 12.300781 -7.863281 12.550781 -7.625 12.625 -7.40625 C 12.625 -7.28125 12.609375 -7.085938 12.578125 -6.828125 C 12.554688 -6.578125 12.535156 -6.351562 12.515625 -6.15625 L 12.546875 -5.328125 C 12.554688 -5.179688 12.5625 -4.960938 12.5625 -4.671875 C 12.5625 -4.097656 12.53125 -3.691406 12.46875 -3.453125 C 12.476562 -3.441406 12.492188 -3.414062 12.515625 -3.375 C 12.535156 -3.34375 12.546875 -3.316406 12.546875 -3.296875 L 12.515625 -3.25 C 12.535156 -3.0625 12.632812 -2.769531 12.8125 -2.375 C 12.988281 -1.976562 13.078125 -1.765625 13.078125 -1.734375 C 13.078125 -1.535156 12.945312 -1.3125 12.6875 -1.0625 C 12.425781 -0.820312 12.179688 -0.6875 11.953125 -0.65625 Z M 11.953125 -0.65625 "/></g></g></g><g fill="#ffffff" fill-opacity="1"><g transform="translate(151.296388, 202.559433)"><g><path d="M 11.953125 -0.65625 C 10.816406 -0.6875 10.25 -1.320312 10.25 -2.5625 C 10.25 -2.90625 10.273438 -3.238281 10.328125 -3.5625 C 10.359375 -3.957031 10.375 -4.238281 10.375 -4.40625 L 10.375 -4.84375 C 10.320312 -5.195312 10.207031 -5.375 10.03125 -5.375 C 9.707031 -5.375 9.109375 -5.0625 8.234375 -4.4375 C 7.359375 -3.820312 6.441406 -3.082031 5.484375 -2.21875 C 5.203125 -1.90625 4.957031 -1.613281 4.75 -1.34375 C 4.570312 -1.113281 4.4375 -0.972656 4.34375 -0.921875 C 4.257812 -0.867188 4.117188 -0.84375 3.921875 -0.84375 C 3.671875 -0.875 3.378906 -1.0625 3.046875 -1.40625 C 2.722656 -1.75 2.507812 -2.054688 2.40625 -2.328125 C 2.40625 -2.828125 2.492188 -3.304688 2.671875 -3.765625 C 2.859375 -4.222656 3.128906 -4.804688 3.484375 -5.515625 C 3.648438 -6.054688 3.859375 -6.597656 4.109375 -7.140625 C 4.378906 -7.765625 4.570312 -8.242188 4.6875 -8.578125 C 4.800781 -8.910156 4.878906 -9.257812 4.921875 -9.625 C 4.921875 -9.644531 4.914062 -9.65625 4.90625 -9.65625 C 4.894531 -9.65625 4.890625 -9.65625 4.890625 -9.65625 C 4.890625 -9.726562 4.914062 -9.789062 4.96875 -9.84375 C 5.03125 -9.894531 5.09375 -9.921875 5.15625 -9.921875 C 5.195312 -9.972656 5.304688 -10 5.484375 -10 C 5.953125 -10 6.359375 -9.875 6.703125 -9.625 C 7.046875 -9.375 7.21875 -8.984375 7.21875 -8.453125 C 7.21875 -8.191406 7.164062 -7.9375 7.0625 -7.6875 C 6.96875 -7.445312 6.785156 -7.046875 6.515625 -6.484375 L 6.21875 -5.890625 C 6.164062 -5.785156 6.082031 -5.628906 5.96875 -5.421875 C 5.863281 -5.210938 5.8125 -5.082031 5.8125 -5.03125 C 6.257812 -5.332031 6.789062 -5.738281 7.40625 -6.25 C 8.3125 -6.96875 9.050781 -7.523438 9.625 -7.921875 C 10.195312 -8.316406 10.617188 -8.515625 10.890625 -8.515625 C 11.128906 -8.515625 11.457031 -8.382812 11.875 -8.125 C 12.300781 -7.863281 12.550781 -7.625 12.625 -7.40625 C 12.625 -7.28125 12.609375 -7.085938 12.578125 -6.828125 C 12.554688 -6.578125 12.535156 -6.351562 12.515625 -6.15625 L 12.546875 -5.328125 C 12.554688 -5.179688 12.5625 -4.960938 12.5625 -4.671875 C 12.5625 -4.097656 12.53125 -3.691406 12.46875 -3.453125 C 12.476562 -3.441406 12.492188 -3.414062 12.515625 -3.375 C 12.535156 -3.34375 12.546875 -3.316406 12.546875 -3.296875 L 12.515625 -3.25 C 12.535156 -3.0625 12.632812 -2.769531 12.8125 -2.375 C 12.988281 -1.976562 13.078125 -1.765625 13.078125 -1.734375 C 13.078125 -1.535156 12.945312 -1.3125 12.6875 -1.0625 C 12.425781 -0.820312 12.179688 -0.6875 11.953125 -0.65625 Z M 11.953125 -0.65625 "/></g></g></g><g fill="#ffffff" fill-opacity="1"><g transform="translate(163.705522, 202.559433)"><g><path d="M 10.734375 -9.96875 C 10.960938 -9.71875 11.128906 -9.503906 11.234375 -9.328125 C 11.347656 -9.160156 11.40625 -8.960938 11.40625 -8.734375 C 11.40625 -8.347656 11.257812 -7.894531 10.96875 -7.375 C 10.832031 -6.957031 10.675781 -6.566406 10.5 -6.203125 C 10.332031 -5.847656 10.203125 -5.617188 10.109375 -5.515625 L 9.484375 -4.078125 C 9.210938 -3.484375 8.878906 -2.789062 8.484375 -2 C 8.003906 -0.988281 7.660156 -0.238281 7.453125 0.25 L 7.109375 0.8125 C 6.203125 2.25 5.507812 3.257812 5.03125 3.84375 C 4.632812 4.195312 4.164062 4.566406 3.625 4.953125 C 3.082031 5.347656 2.648438 5.570312 2.328125 5.625 C 1.984375 5.695312 1.601562 5.734375 1.1875 5.734375 C 0.445312 5.734375 -0.207031 5.601562 -0.78125 5.34375 C -1.363281 5.09375 -1.695312 4.789062 -1.78125 4.4375 L -1.84375 4.109375 C -1.84375 3.804688 -1.71875 3.566406 -1.46875 3.390625 C -1.226562 3.222656 -0.960938 3.140625 -0.671875 3.140625 C -0.492188 3.140625 -0.359375 3.179688 -0.265625 3.265625 C -0.234375 3.285156 -0.09375 3.382812 0.15625 3.5625 C 0.414062 3.75 0.757812 3.84375 1.1875 3.84375 C 2 3.84375 2.789062 3.3125 3.5625 2.25 C 4.320312 1.039062 4.898438 0.0703125 5.296875 -0.65625 C 4.929688 -0.863281 4.578125 -1.222656 4.234375 -1.734375 C 3.898438 -2.253906 3.75 -2.613281 3.78125 -2.8125 L 3.78125 -3.109375 C 3.632812 -3.109375 3.53125 -3.378906 3.46875 -3.921875 C 3.40625 -4.460938 3.375 -5.128906 3.375 -5.921875 C 3.375 -6.785156 3.394531 -7.390625 3.4375 -7.734375 C 3.507812 -8.015625 3.546875 -8.367188 3.546875 -8.796875 C 3.554688 -9.222656 3.5625 -9.5 3.5625 -9.625 C 3.550781 -9.875 3.601562 -10.09375 3.71875 -10.28125 C 3.832031 -10.46875 3.941406 -10.597656 4.046875 -10.671875 C 4.285156 -10.765625 4.476562 -10.8125 4.625 -10.8125 C 5.445312 -10.8125 5.859375 -9.925781 5.859375 -8.15625 C 5.859375 -7.820312 5.851562 -7.5625 5.84375 -7.375 C 5.800781 -6.507812 5.78125 -5.898438 5.78125 -5.546875 C 5.78125 -4.148438 5.972656 -3.25 6.359375 -2.84375 C 6.515625 -3.21875 6.644531 -3.488281 6.75 -3.65625 C 7.007812 -4.175781 7.15625 -4.507812 7.1875 -4.65625 C 7.226562 -4.78125 7.328125 -4.984375 7.484375 -5.265625 L 7.84375 -6 C 7.875 -6.101562 7.988281 -6.445312 8.1875 -7.03125 C 8.382812 -7.625 8.582031 -8.097656 8.78125 -8.453125 C 8.851562 -8.597656 8.960938 -8.8125 9.109375 -9.09375 C 9.253906 -9.375 9.367188 -9.578125 9.453125 -9.703125 C 9.546875 -9.828125 9.648438 -9.910156 9.765625 -9.953125 C 9.898438 -10.078125 10.050781 -10.140625 10.21875 -10.140625 C 10.382812 -10.140625 10.554688 -10.082031 10.734375 -9.96875 Z M 10.734375 -9.96875 "/></g></g></g><g fill="#ffffff" fill-opacity="1"><g transform="translate(172.924506, 202.559433)"><g/></g></g><g fill="#ffffff" fill-opacity="1"><g transform="translate(179.467009, 202.559433)"><g><path d="M 1.65625 0.890625 C 1.445312 0.785156 1.300781 0.6875 1.21875 0.59375 C 1.144531 0.5 1.109375 0.382812 1.109375 0.25 C 1.109375 0.0625 1.179688 -0.195312 1.328125 -0.53125 C 1.484375 -0.863281 1.753906 -1.390625 2.140625 -2.109375 C 2.242188 -2.335938 2.445312 -2.753906 2.75 -3.359375 C 3.53125 -4.828125 3.921875 -5.914062 3.921875 -6.625 C 3.898438 -6.65625 3.890625 -6.707031 3.890625 -6.78125 C 3.890625 -6.96875 4.035156 -7.128906 4.328125 -7.265625 C 4.378906 -7.328125 4.570312 -7.484375 4.90625 -7.734375 C 5.238281 -7.984375 5.503906 -8.269531 5.703125 -8.59375 C 5.941406 -9.132812 6.238281 -9.734375 6.59375 -10.390625 C 6.957031 -11.046875 7.578125 -12.125 8.453125 -13.625 C 9.328125 -15.207031 10.25 -16.640625 11.21875 -17.921875 C 11.394531 -18.171875 11.59375 -18.367188 11.8125 -18.515625 C 12.039062 -18.660156 12.238281 -18.734375 12.40625 -18.734375 C 12.96875 -18.734375 13.539062 -18.515625 14.125 -18.078125 C 14.707031 -17.648438 15.085938 -17.21875 15.265625 -16.78125 C 15.335938 -16.65625 15.375 -16.382812 15.375 -15.96875 C 15.375 -15.414062 15.3125 -14.472656 15.1875 -13.140625 C 15.15625 -12.898438 15.117188 -12.53125 15.078125 -12.03125 C 15.023438 -11.21875 14.945312 -10.351562 14.84375 -9.4375 C 14.644531 -7.414062 14.5 -5.835938 14.40625 -4.703125 C 14.3125 -3.566406 14.265625 -2.503906 14.265625 -1.515625 C 14.265625 -1.003906 14.273438 -0.632812 14.296875 -0.40625 L 14.296875 -0.21875 L 14.265625 0.40625 C 14.160156 0.507812 13.945312 0.5625 13.625 0.5625 C 13.257812 0.5625 12.894531 0.503906 12.53125 0.390625 C 12.175781 0.273438 11.984375 0.132812 11.953125 -0.03125 C 11.929688 -0.0390625 11.898438 -0.0546875 11.859375 -0.078125 C 11.828125 -0.0976562 11.8125 -0.179688 11.8125 -0.328125 L 11.84375 -0.921875 L 11.921875 -2.4375 L 12.0625 -6.5625 L 11.703125 -6.546875 C 11.335938 -6.546875 10.570312 -6.472656 9.40625 -6.328125 C 8.25 -6.179688 7.519531 -6.0625 7.21875 -5.96875 C 7.050781 -5.96875 6.847656 -5.859375 6.609375 -5.640625 C 6.378906 -5.429688 6.175781 -5.15625 6 -4.8125 C 5.945312 -4.632812 5.820312 -4.378906 5.625 -4.046875 C 5.425781 -3.710938 5.328125 -3.515625 5.328125 -3.453125 C 5.210938 -3.390625 5.113281 -3.296875 5.03125 -3.171875 C 4.957031 -3.054688 4.910156 -2.984375 4.890625 -2.953125 C 4.890625 -2.753906 4.710938 -2.242188 4.359375 -1.421875 C 4.015625 -0.597656 3.671875 0.0703125 3.328125 0.59375 L 2.59375 1.625 Z M 8.109375 -8.40625 C 8.234375 -8.425781 8.484375 -8.46875 8.859375 -8.53125 C 9.242188 -8.59375 9.578125 -8.632812 9.859375 -8.65625 C 10.722656 -8.863281 11.320312 -8.96875 11.65625 -8.96875 C 11.832031 -8.96875 11.957031 -8.953125 12.03125 -8.921875 C 12.082031 -8.847656 12.140625 -8.796875 12.203125 -8.765625 C 12.265625 -8.742188 12.304688 -8.734375 12.328125 -8.734375 C 12.359375 -8.878906 12.5 -9.859375 12.75 -11.671875 C 13.007812 -13.492188 13.140625 -14.613281 13.140625 -15.03125 C 13.140625 -15.320312 13.128906 -15.566406 13.109375 -15.765625 C 13.085938 -15.972656 13.070312 -16.109375 13.0625 -16.171875 C 12.894531 -16.171875 12.519531 -15.738281 11.9375 -14.875 C 11.363281 -14.019531 10.804688 -13.050781 10.265625 -11.96875 C 9.859375 -11.226562 9.570312 -10.859375 9.40625 -10.859375 C 9.28125 -10.734375 9.007812 -10.3125 8.59375 -9.59375 C 8.175781 -8.875 8.015625 -8.476562 8.109375 -8.40625 Z M 8.109375 -8.40625 "/></g></g></g><g fill="#ffffff" fill-opacity="1"><g transform="translate(193.28197, 202.559433)"><g><path d="M 11.953125 -0.65625 C 10.816406 -0.6875 10.25 -1.320312 10.25 -2.5625 C 10.25 -2.90625 10.273438 -3.238281 10.328125 -3.5625 C 10.359375 -3.957031 10.375 -4.238281 10.375 -4.40625 L 10.375 -4.84375 C 10.320312 -5.195312 10.207031 -5.375 10.03125 -5.375 C 9.707031 -5.375 9.109375 -5.0625 8.234375 -4.4375 C 7.359375 -3.820312 6.441406 -3.082031 5.484375 -2.21875 C 5.203125 -1.90625 4.957031 -1.613281 4.75 -1.34375 C 4.570312 -1.113281 4.4375 -0.972656 4.34375 -0.921875 C 4.257812 -0.867188 4.117188 -0.84375 3.921875 -0.84375 C 3.671875 -0.875 3.378906 -1.0625 3.046875 -1.40625 C 2.722656 -1.75 2.507812 -2.054688 2.40625 -2.328125 C 2.40625 -2.828125 2.492188 -3.304688 2.671875 -3.765625 C 2.859375 -4.222656 3.128906 -4.804688 3.484375 -5.515625 C 3.648438 -6.054688 3.859375 -6.597656 4.109375 -7.140625 C 4.378906 -7.765625 4.570312 -8.242188 4.6875 -8.578125 C 4.800781 -8.910156 4.878906 -9.257812 4.921875 -9.625 C 4.921875 -9.644531 4.914062 -9.65625 4.90625 -9.65625 C 4.894531 -9.65625 4.890625 -9.65625 4.890625 -9.65625 C 4.890625 -9.726562 4.914062 -9.789062 4.96875 -9.84375 C 5.03125 -9.894531 5.09375 -9.921875 5.15625 -9.921875 C 5.195312 -9.972656 5.304688 -10 5.484375 -10 C 5.953125 -10 6.359375 -9.875 6.703125 -9.625 C 7.046875 -9.375 7.21875 -8.984375 7.21875 -8.453125 C 7.21875 -8.191406 7.164062 -7.9375 7.0625 -7.6875 C 6.96875 -7.445312 6.785156 -7.046875 6.515625 -6.484375 L 6.21875 -5.890625 C 6.164062 -5.785156 6.082031 -5.628906 5.96875 -5.421875 C 5.863281 -5.210938 5.8125 -5.082031 5.8125 -5.03125 C 6.257812 -5.332031 6.789062 -5.738281 7.40625 -6.25 C 8.3125 -6.96875 9.050781 -7.523438 9.625 -7.921875 C 10.195312 -8.316406 10.617188 -8.515625 10.890625 -8.515625 C 11.128906 -8.515625 11.457031 -8.382812 11.875 -8.125 C 12.300781 -7.863281 12.550781 -7.625 12.625 -7.40625 C 12.625 -7.28125 12.609375 -7.085938 12.578125 -6.828125 C 12.554688 -6.578125 12.535156 -6.351562 12.515625 -6.15625 L 12.546875 -5.328125 C 12.554688 -5.179688 12.5625 -4.960938 12.5625 -4.671875 C 12.5625 -4.097656 12.53125 -3.691406 12.46875 -3.453125 C 12.476562 -3.441406 12.492188 -3.414062 12.515625 -3.375 C 12.535156 -3.34375 12.546875 -3.316406 12.546875 -3.296875 L 12.515625 -3.25 C 12.535156 -3.0625 12.632812 -2.769531 12.8125 -2.375 C 12.988281 -1.976562 13.078125 -1.765625 13.078125 -1.734375 C 13.078125 -1.535156 12.945312 -1.3125 12.6875 -1.0625 C 12.425781 -0.820312 12.179688 -0.6875 11.953125 -0.65625 Z M 11.953125 -0.65625 "/></g></g></g><g fill="#ffffff" fill-opacity="1"><g transform="translate(205.691103, 202.559433)"><g><path d="M 10.109375 0.515625 C 9.878906 0.566406 9.65625 0.507812 9.4375 0.34375 C 9.21875 0.1875 9.054688 0 8.953125 -0.21875 C 8.859375 -0.46875 8.789062 -0.710938 8.75 -0.953125 C 8.71875 -1.203125 8.691406 -1.535156 8.671875 -1.953125 L 8.65625 -2.859375 L 7.546875 -1.859375 C 6.410156 -0.796875 5.351562 -0.265625 4.375 -0.265625 C 4.09375 -0.316406 3.726562 -0.5625 3.28125 -1 C 2.84375 -1.4375 2.5625 -1.804688 2.4375 -2.109375 C 2.363281 -2.253906 2.328125 -2.476562 2.328125 -2.78125 C 2.328125 -3.46875 2.503906 -4.289062 2.859375 -5.25 C 3.222656 -6.21875 3.675781 -7 4.21875 -7.59375 C 4.613281 -8.1875 5.085938 -8.632812 5.640625 -8.9375 C 6.203125 -9.25 6.773438 -9.40625 7.359375 -9.40625 C 7.890625 -9.40625 8.363281 -9.289062 8.78125 -9.0625 C 9.03125 -8.925781 9.238281 -8.859375 9.40625 -8.859375 C 9.582031 -8.859375 9.703125 -8.976562 9.765625 -9.21875 C 9.773438 -9.3125 9.878906 -9.671875 10.078125 -10.296875 L 10.375 -11.15625 C 10.769531 -12.351562 11.113281 -13.3125 11.40625 -14.03125 C 11.695312 -14.75 12.050781 -15.539062 12.46875 -16.40625 C 12.644531 -16.78125 12.832031 -17.054688 13.03125 -17.234375 C 13.226562 -17.421875 13.40625 -17.503906 13.5625 -17.484375 C 13.800781 -17.484375 14.0625 -17.40625 14.34375 -17.25 C 14.625 -17.101562 14.804688 -16.910156 14.890625 -16.671875 C 14.941406 -16.546875 14.96875 -16.394531 14.96875 -16.21875 C 14.96875 -16.019531 14.914062 -15.8125 14.8125 -15.59375 C 14.34375 -14.78125 13.765625 -13.453125 13.078125 -11.609375 C 12.398438 -9.773438 11.867188 -8.1875 11.484375 -6.84375 C 11.335938 -6.351562 11.234375 -5.675781 11.171875 -4.8125 C 11.109375 -3.945312 11.078125 -3.097656 11.078125 -2.265625 C 11.078125 -1.472656 11.101562 -0.976562 11.15625 -0.78125 C 11.195312 -0.675781 11.21875 -0.53125 11.21875 -0.34375 C 11.21875 -0.0390625 11.113281 0.164062 10.90625 0.28125 C 10.695312 0.394531 10.429688 0.472656 10.109375 0.515625 Z M 5.65625 -2.75 C 6.0625 -2.914062 6.519531 -3.1875 7.03125 -3.5625 C 7.570312 -3.957031 7.960938 -4.304688 8.203125 -4.609375 C 8.441406 -4.921875 8.632812 -5.3125 8.78125 -5.78125 C 8.820312 -5.875 8.84375 -6 8.84375 -6.15625 C 8.84375 -6.488281 8.6875 -6.789062 8.375 -7.0625 C 8.195312 -7.195312 7.992188 -7.265625 7.765625 -7.265625 C 7.378906 -7.265625 6.976562 -7.066406 6.5625 -6.671875 C 6.09375 -6.242188 5.710938 -5.765625 5.421875 -5.234375 C 5.140625 -4.703125 4.898438 -3.972656 4.703125 -3.046875 C 4.671875 -2.921875 4.6875 -2.816406 4.75 -2.734375 C 4.820312 -2.660156 4.941406 -2.625 5.109375 -2.625 C 5.234375 -2.625 5.414062 -2.664062 5.65625 -2.75 Z M 5.65625 -2.75 "/></g></g></g><g fill="#ffffff" fill-opacity="1"><g transform="translate(216.559234, 202.559433)"><g><path d="M 3.21875 -0.734375 C 2.96875 -0.929688 2.769531 -1.117188 2.625 -1.296875 C 2.476562 -1.472656 2.429688 -1.722656 2.484375 -2.046875 C 2.535156 -2.660156 2.671875 -3.375 2.890625 -4.1875 L 3.03125 -4.734375 C 3.082031 -5.210938 3.363281 -6.171875 3.875 -7.609375 C 4.394531 -9.046875 4.820312 -10.015625 5.15625 -10.515625 C 5.34375 -10.691406 5.648438 -10.78125 6.078125 -10.78125 C 6.441406 -10.78125 6.695312 -10.707031 6.84375 -10.5625 C 6.988281 -10.457031 7.0625 -10.28125 7.0625 -10.03125 C 7.0625 -9.613281 6.796875 -8.882812 6.265625 -7.84375 L 6 -7.265625 C 5.875 -7.035156 5.769531 -6.820312 5.6875 -6.625 C 5.601562 -6.425781 5.609375 -6.335938 5.703125 -6.359375 C 5.898438 -6.691406 6.378906 -7.15625 7.140625 -7.75 C 7.910156 -8.351562 8.441406 -8.722656 8.734375 -8.859375 C 8.859375 -8.929688 9.019531 -9.003906 9.21875 -9.078125 C 9.414062 -9.148438 9.550781 -9.207031 9.625 -9.25 C 9.945312 -9.40625 10.316406 -9.484375 10.734375 -9.484375 C 11.015625 -9.484375 11.257812 -9.441406 11.46875 -9.359375 C 11.675781 -9.285156 11.816406 -9.164062 11.890625 -9 C 11.910156 -8.875 11.957031 -8.773438 12.03125 -8.703125 C 12.113281 -8.628906 12.175781 -8.582031 12.21875 -8.5625 C 12.269531 -8.5625 12.304688 -8.539062 12.328125 -8.5 C 12.347656 -8.457031 12.359375 -8.425781 12.359375 -8.40625 C 12.359375 -8.257812 12.226562 -8.070312 11.96875 -7.84375 C 11.71875 -7.625 11.457031 -7.503906 11.1875 -7.484375 C 10.988281 -7.460938 10.78125 -7.414062 10.5625 -7.34375 C 10.351562 -7.28125 10.140625 -7.191406 9.921875 -7.078125 L 9.21875 -6.671875 C 8.601562 -6.367188 8.082031 -6.066406 7.65625 -5.765625 C 7.238281 -5.472656 6.8125 -5.09375 6.375 -4.625 C 6.289062 -4.53125 6.160156 -4.398438 5.984375 -4.234375 C 5.816406 -4.078125 5.671875 -3.890625 5.546875 -3.671875 C 5.421875 -3.546875 5.289062 -3.21875 5.15625 -2.6875 C 5.019531 -2.15625 4.953125 -1.828125 4.953125 -1.703125 C 4.929688 -1.648438 4.890625 -1.539062 4.828125 -1.375 C 4.773438 -1.21875 4.695312 -1.078125 4.59375 -0.953125 C 4.4375 -0.753906 4.300781 -0.609375 4.1875 -0.515625 C 4.082031 -0.421875 3.96875 -0.375 3.84375 -0.375 C 3.65625 -0.375 3.445312 -0.492188 3.21875 -0.734375 Z M 3.21875 -0.734375 "/></g></g></g><g fill="#ffffff" fill-opacity="1"><g transform="translate(226.291886, 202.559433)"><g><path d="M 3.359375 -0.5625 C 3.296875 -0.675781 3.140625 -0.820312 2.890625 -1 C 2.640625 -1.175781 2.515625 -1.285156 2.515625 -1.328125 C 2.515625 -1.398438 2.472656 -1.503906 2.390625 -1.640625 C 2.304688 -1.773438 2.226562 -1.894531 2.15625 -2 C 2.019531 -2.144531 2.117188 -2.613281 2.453125 -3.40625 C 2.796875 -4.195312 3.257812 -5.132812 3.84375 -6.21875 C 3.945312 -6.320312 4.082031 -6.507812 4.25 -6.78125 C 4.425781 -7.050781 4.539062 -7.207031 4.59375 -7.25 C 4.59375 -7.320312 4.617188 -7.390625 4.671875 -7.453125 C 4.722656 -7.515625 4.785156 -7.546875 4.859375 -7.546875 L 5.078125 -7.96875 C 5.148438 -8.132812 5.5 -8.523438 6.125 -9.140625 C 6.757812 -9.753906 7.257812 -10.164062 7.625 -10.375 C 7.96875 -10.613281 8.335938 -10.734375 8.734375 -10.734375 C 9.160156 -10.734375 9.53125 -10.609375 9.84375 -10.359375 L 10.5625 -9.734375 C 11.101562 -9.285156 11.410156 -9.023438 11.484375 -8.953125 L 12.484375 -8.0625 L 12.03125 -6.703125 C 11.863281 -6.210938 11.78125 -5.753906 11.78125 -5.328125 C 11.78125 -4.640625 11.972656 -4 12.359375 -3.40625 C 12.441406 -3.207031 12.5625 -3.050781 12.71875 -2.9375 C 12.875 -2.832031 13.078125 -2.765625 13.328125 -2.734375 C 13.722656 -2.660156 13.921875 -2.460938 13.921875 -2.140625 C 13.921875 -1.742188 13.847656 -1.445312 13.703125 -1.25 C 13.554688 -1.050781 13.382812 -0.921875 13.1875 -0.859375 C 12.90625 -0.828125 12.707031 -0.8125 12.59375 -0.8125 C 12.070312 -0.8125 11.59375 -0.945312 11.15625 -1.21875 C 10.726562 -1.488281 10.351562 -1.945312 10.03125 -2.59375 C 9.957031 -2.695312 9.859375 -2.894531 9.734375 -3.1875 C 9.617188 -3.476562 9.554688 -3.675781 9.546875 -3.78125 C 9.421875 -3.601562 9.210938 -3.367188 8.921875 -3.078125 C 7.066406 -1.203125 5.5625 -0.265625 4.40625 -0.265625 C 4.007812 -0.265625 3.660156 -0.363281 3.359375 -0.5625 Z M 4.84375 -2.8125 C 5.125 -2.769531 5.679688 -3.09375 6.515625 -3.78125 C 6.609375 -3.851562 6.707031 -3.9375 6.8125 -4.03125 C 6.914062 -4.132812 7.03125 -4.242188 7.15625 -4.359375 C 7.664062 -4.765625 8.0625 -5.109375 8.34375 -5.390625 C 8.625 -5.671875 8.90625 -6.007812 9.1875 -6.40625 L 9.78125 -7.375 C 9.601562 -7.769531 9.441406 -8.035156 9.296875 -8.171875 C 9.148438 -8.304688 9.003906 -8.375 8.859375 -8.375 C 8.503906 -8.375 8.054688 -8.050781 7.515625 -7.40625 C 6.972656 -6.769531 6.320312 -5.804688 5.5625 -4.515625 C 5.363281 -4.191406 5.203125 -3.851562 5.078125 -3.5 C 4.953125 -3.144531 4.875 -2.914062 4.84375 -2.8125 Z M 4.84375 -2.8125 "/></g></g></g><g fill="#ffffff" fill-opacity="1"><g transform="translate(238.349557, 202.559433)"><g><path d="M 10.109375 0.515625 C 9.878906 0.566406 9.65625 0.507812 9.4375 0.34375 C 9.21875 0.1875 9.054688 0 8.953125 -0.21875 C 8.859375 -0.46875 8.789062 -0.710938 8.75 -0.953125 C 8.71875 -1.203125 8.691406 -1.535156 8.671875 -1.953125 L 8.65625 -2.859375 L 7.546875 -1.859375 C 6.410156 -0.796875 5.351562 -0.265625 4.375 -0.265625 C 4.09375 -0.316406 3.726562 -0.5625 3.28125 -1 C 2.84375 -1.4375 2.5625 -1.804688 2.4375 -2.109375 C 2.363281 -2.253906 2.328125 -2.476562 2.328125 -2.78125 C 2.328125 -3.46875 2.503906 -4.289062 2.859375 -5.25 C 3.222656 -6.21875 3.675781 -7 4.21875 -7.59375 C 4.613281 -8.1875 5.085938 -8.632812 5.640625 -8.9375 C 6.203125 -9.25 6.773438 -9.40625 7.359375 -9.40625 C 7.890625 -9.40625 8.363281 -9.289062 8.78125 -9.0625 C 9.03125 -8.925781 9.238281 -8.859375 9.40625 -8.859375 C 9.582031 -8.859375 9.703125 -8.976562 9.765625 -9.21875 C 9.773438 -9.3125 9.878906 -9.671875 10.078125 -10.296875 L 10.375 -11.15625 C 10.769531 -12.351562 11.113281 -13.3125 11.40625 -14.03125 C 11.695312 -14.75 12.050781 -15.539062 12.46875 -16.40625 C 12.644531 -16.78125 12.832031 -17.054688 13.03125 -17.234375 C 13.226562 -17.421875 13.40625 -17.503906 13.5625 -17.484375 C 13.800781 -17.484375 14.0625 -17.40625 14.34375 -17.25 C 14.625 -17.101562 14.804688 -16.910156 14.890625 -16.671875 C 14.941406 -16.546875 14.96875 -16.394531 14.96875 -16.21875 C 14.96875 -16.019531 14.914062 -15.8125 14.8125 -15.59375 C 14.34375 -14.78125 13.765625 -13.453125 13.078125 -11.609375 C 12.398438 -9.773438 11.867188 -8.1875 11.484375 -6.84375 C 11.335938 -6.351562 11.234375 -5.675781 11.171875 -4.8125 C 11.109375 -3.945312 11.078125 -3.097656 11.078125 -2.265625 C 11.078125 -1.472656 11.101562 -0.976562 11.15625 -0.78125 C 11.195312 -0.675781 11.21875 -0.53125 11.21875 -0.34375 C 11.21875 -0.0390625 11.113281 0.164062 10.90625 0.28125 C 10.695312 0.394531 10.429688 0.472656 10.109375 0.515625 Z M 5.65625 -2.75 C 6.0625 -2.914062 6.519531 -3.1875 7.03125 -3.5625 C 7.570312 -3.957031 7.960938 -4.304688 8.203125 -4.609375 C 8.441406 -4.921875 8.632812 -5.3125 8.78125 -5.78125 C 8.820312 -5.875 8.84375 -6 8.84375 -6.15625 C 8.84375 -6.488281 8.6875 -6.789062 8.375 -7.0625 C 8.195312 -7.195312 7.992188 -7.265625 7.765625 -7.265625 C 7.378906 -7.265625 6.976562 -7.066406 6.5625 -6.671875 C 6.09375 -6.242188 5.710938 -5.765625 5.421875 -5.234375 C 5.140625 -4.703125 4.898438 -3.972656 4.703125 -3.046875 C 4.671875 -2.921875 4.6875 -2.816406 4.75 -2.734375 C 4.820312 -2.660156 4.941406 -2.625 5.109375 -2.625 C 5.234375 -2.625 5.414062 -2.664062 5.65625 -2.75 Z M 5.65625 -2.75 "/></g></g></g><g fill="#ffffff" fill-opacity="1"><g transform="translate(249.217687, 202.559433)"><g><path d="M 6.03125 0 C 5 0 4.164062 -0.285156 3.53125 -0.859375 C 2.90625 -1.441406 2.59375 -2.265625 2.59375 -3.328125 C 2.59375 -3.742188 2.617188 -4.203125 2.671875 -4.703125 C 2.710938 -5.140625 2.890625 -5.734375 3.203125 -6.484375 C 3.515625 -7.242188 3.945312 -7.984375 4.5 -8.703125 C 5.050781 -9.421875 5.695312 -9.953125 6.4375 -10.296875 C 6.78125 -10.460938 7.066406 -10.578125 7.296875 -10.640625 C 7.535156 -10.703125 7.804688 -10.734375 8.109375 -10.734375 C 8.847656 -10.734375 9.445312 -10.597656 9.90625 -10.328125 C 10.363281 -10.054688 10.6875 -9.75 10.875 -9.40625 C 11.0625 -9.0625 11.15625 -8.765625 11.15625 -8.515625 L 11.15625 -8.296875 C 11.15625 -8.078125 11.03125 -7.679688 10.78125 -7.109375 C 10.53125 -6.535156 10.128906 -5.992188 9.578125 -5.484375 C 9.035156 -4.984375 8.328125 -4.707031 7.453125 -4.65625 C 7.023438 -4.65625 6.609375 -4.691406 6.203125 -4.765625 C 5.796875 -4.847656 5.539062 -4.890625 5.4375 -4.890625 C 5.164062 -4.890625 4.992188 -4.789062 4.921875 -4.59375 C 4.847656 -4.394531 4.8125 -4.0625 4.8125 -3.59375 C 4.863281 -3.09375 5 -2.742188 5.21875 -2.546875 C 5.445312 -2.347656 5.78125 -2.25 6.21875 -2.25 C 6.4375 -2.25 6.6875 -2.3125 6.96875 -2.4375 C 7.257812 -2.582031 7.601562 -2.804688 8 -3.109375 C 8.21875 -3.285156 8.390625 -3.410156 8.515625 -3.484375 C 8.640625 -3.554688 8.789062 -3.59375 8.96875 -3.59375 C 9.132812 -3.59375 9.320312 -3.484375 9.53125 -3.265625 C 9.75 -3.054688 9.867188 -2.851562 9.890625 -2.65625 C 9.859375 -2.4375 9.660156 -2.109375 9.296875 -1.671875 C 8.941406 -1.242188 8.472656 -0.859375 7.890625 -0.515625 C 7.316406 -0.171875 6.695312 0 6.03125 0 Z M 6.96875 -6.515625 C 7.3125 -6.515625 7.546875 -6.550781 7.671875 -6.625 C 7.859375 -6.707031 8.132812 -6.929688 8.5 -7.296875 C 8.875 -7.671875 9.066406 -7.929688 9.078125 -8.078125 C 9.078125 -8.265625 9 -8.414062 8.84375 -8.53125 C 8.695312 -8.644531 8.488281 -8.722656 8.21875 -8.765625 L 7.921875 -8.765625 C 7.679688 -8.765625 7.34375 -8.566406 6.90625 -8.171875 C 6.46875 -7.785156 6.082031 -7.34375 5.75 -6.84375 C 5.769531 -6.75 5.90625 -6.671875 6.15625 -6.609375 C 6.414062 -6.546875 6.6875 -6.515625 6.96875 -6.515625 Z M 6.96875 -6.515625 "/></g></g></g></svg>